<svg width="89" height="89" viewBox="0 0 89 89" fill="none" xmlns="http://www.w3.org/2000/svg">
<circle cx="44.3159" cy="44.3159" r="44.3159" fill="#FF9500"/>
<path d="M26.2957 18.5728C23.4571 18.5728 21.147 20.8819 21.147 23.7214C21.147 26.5609 23.4571 28.87 26.2957 28.87C29.1343 28.87 31.4443 26.5609 31.4443 23.7214C31.4443 20.8819 29.1343 18.5728 26.2957 18.5728ZM26.2957 27.1538C24.4026 27.1538 22.8633 25.6143 22.8633 23.7214C22.8633 21.8285 24.4026 20.289 26.2957 20.289C28.1887 20.289 29.7281 21.8285 29.7281 23.7214C29.7281 25.6143 28.1887 27.1538 26.2957 27.1538Z" fill="white"/>
<path d="M29.7299 25.4376H29.7085C29.5758 25.4377 29.4449 25.4685 29.3261 25.5276C29.2072 25.5867 29.1037 25.6725 29.0237 25.7783C28.3638 26.6527 27.3693 27.1538 26.2958 27.1538C25.2223 27.1538 24.2278 26.6527 23.5679 25.7782C23.4057 25.5637 23.1303 25.4375 22.8617 25.4375C20.4967 25.4376 18.5728 27.3615 18.5728 29.7264V33.1605C18.5729 33.3881 18.6633 33.6063 18.8242 33.7672C18.9851 33.9281 19.2033 34.0185 19.4309 34.0186H33.1606C33.3881 34.0185 33.6063 33.9281 33.7672 33.7672C33.9281 33.6063 34.0186 33.3881 34.0186 33.1605V29.7264C34.0188 27.3615 32.0948 25.4376 29.7299 25.4376ZM32.3025 32.3024H20.2891V29.7264C20.2891 28.4349 21.245 27.3632 22.503 27.1812C23.4795 28.2599 24.8379 28.87 26.2958 28.87C27.7546 28.87 29.1138 28.259 30.0903 27.1787C31.3388 27.3546 32.3025 28.4307 32.3025 29.7264V32.3024ZM62.3363 18.5728C59.4977 18.5728 57.1877 20.8819 57.1877 23.7214C57.1877 26.5609 59.4977 28.87 62.3363 28.87C65.1749 28.87 67.4849 26.5609 67.4849 23.7214C67.4849 20.8819 65.1749 18.5728 62.3363 18.5728ZM62.3363 27.1538C60.4433 27.1538 58.9039 25.6143 58.9039 23.7214C58.9039 21.8285 60.4434 20.289 62.3363 20.289C64.2293 20.289 65.7687 21.8285 65.7687 23.7214C65.7687 25.6143 64.2293 27.1538 62.3363 27.1538Z" fill="white"/>
<path d="M65.7703 25.4376H65.7489C65.6162 25.4377 65.4853 25.4684 65.3665 25.5276C65.2477 25.5867 65.1441 25.6725 65.0641 25.7783C64.4042 26.6527 63.4097 27.1539 62.3361 27.1539C61.2626 27.1539 60.2681 26.6528 59.6082 25.7783C59.446 25.5638 59.1706 25.4376 58.902 25.4376C56.537 25.4376 54.6131 27.3615 54.6131 29.7265V33.1606C54.6132 33.3881 54.7036 33.6063 54.8645 33.7673C55.0254 33.9282 55.2436 34.0186 55.4712 34.0187H69.2009C69.4284 34.0186 69.6466 33.9282 69.8075 33.7673C69.9684 33.6063 70.0589 33.3881 70.059 33.1606V29.7265C70.0592 27.3614 68.1353 25.4376 65.7703 25.4376ZM68.3429 32.3024H56.3295V29.7264C56.3295 28.4349 57.2854 27.3631 58.5434 27.1812C59.5199 28.2598 60.8783 28.87 62.3362 28.87C63.795 28.87 65.1542 28.259 66.1307 27.1787C67.3792 27.3546 68.3429 28.4307 68.3429 29.7264V32.3024ZM26.2957 54.6132C23.4571 54.6132 21.147 56.9224 21.147 59.7619C21.147 62.6014 23.4571 64.9105 26.2957 64.9105C29.1343 64.9105 31.4443 62.6014 31.4443 59.7619C31.4443 56.9224 29.1343 54.6132 26.2957 54.6132ZM26.2957 63.1943C24.4026 63.1943 22.8633 61.6548 22.8633 59.7619C22.8633 57.8689 24.4027 56.3295 26.2957 56.3295C28.1886 56.3295 29.7281 57.869 29.7281 59.7619C29.7281 61.6549 28.1887 63.1943 26.2957 63.1943Z" fill="white"/>
<path d="M29.7298 61.4782H29.7084C29.5757 61.4782 29.4448 61.509 29.326 61.5681C29.2072 61.6272 29.1037 61.713 29.0236 61.8189C28.3637 62.6932 27.3692 63.1944 26.2956 63.1944C25.2221 63.1944 24.2276 62.6933 23.5677 61.8189C23.4055 61.6044 23.1301 61.4782 22.8615 61.4782C20.4965 61.4782 18.5726 63.4021 18.5726 65.767V69.2011C18.5727 69.6748 18.9572 70.0592 19.4308 70.0592H33.1605C33.388 70.0591 33.6063 69.9687 33.7672 69.8078C33.9281 69.6469 34.0185 69.4287 34.0186 69.2011V65.767C34.0187 63.402 32.0948 61.4782 29.7298 61.4782ZM32.3024 68.343H20.289V65.7669C20.289 64.4755 21.2449 63.4037 22.5029 63.2218C23.4794 64.3005 24.8378 64.9106 26.2957 64.9106C27.7545 64.9106 29.1137 64.2996 30.0902 63.2193C31.3388 63.3951 32.3024 64.4712 32.3024 65.7669V68.343ZM62.3362 54.6133C59.4976 54.6133 57.1876 56.9224 57.1876 59.7619C57.1876 62.6014 59.4976 64.9106 62.3362 64.9106C65.1748 64.9106 67.4849 62.6014 67.4849 59.7619C67.4849 56.9224 65.1748 54.6133 62.3362 54.6133ZM62.3362 63.1943C60.4432 63.1943 58.9038 61.6549 58.9038 59.7619C58.9038 57.8689 60.4433 56.3295 62.3362 56.3295C64.2292 56.3295 65.7686 57.869 65.7686 59.7619C65.7686 61.655 64.2292 63.1943 62.3362 63.1943Z" fill="white"/>
<path d="M65.7702 61.4782H65.7488C65.6161 61.4783 65.4852 61.5091 65.3664 61.5682C65.2476 61.6273 65.144 61.7131 65.064 61.8189C64.4041 62.6933 63.4096 63.1945 62.336 63.1945C61.2625 63.1945 60.268 62.6934 59.6081 61.8189C59.4459 61.6044 59.1705 61.4782 58.9019 61.4782C56.5369 61.4782 54.613 63.4021 54.613 65.7671V69.2012C54.6131 69.4288 54.7035 69.647 54.8644 69.8079C55.0253 69.9688 55.2435 70.0592 55.4711 70.0593H69.2008C69.4283 70.0592 69.6465 69.9688 69.8074 69.8079C69.9683 69.647 70.0588 69.4288 70.0589 69.2012V65.7671C70.0591 63.402 68.1352 61.4782 65.7702 61.4782ZM68.3428 68.343H56.3294V65.767C56.3294 64.4755 57.2853 63.4038 58.5433 63.2218C59.5198 64.3004 60.8782 64.9106 62.3361 64.9106C63.7949 64.9106 65.1541 64.2996 66.1306 63.2193C67.3792 63.3952 68.3428 64.4713 68.3428 65.767V68.343ZM58.5355 22.8582C57.7958 22.3674 57.0314 21.9149 56.2453 21.5023C56.0438 21.3968 55.8085 21.3755 55.5913 21.4433C55.3741 21.511 55.1927 21.6622 55.0869 21.8636C54.8671 22.2833 55.0293 22.8024 55.449 23.0221C56.1826 23.4072 56.8961 23.8297 57.5866 24.2878C57.7268 24.3813 57.8916 24.4312 58.0602 24.4311C58.2019 24.4312 58.3414 24.3962 58.4662 24.3293C58.5911 24.2624 58.6975 24.1656 58.7759 24.0476C59.0375 23.6528 58.9302 23.1199 58.5355 22.8582ZM51.6578 19.6368C50.0716 19.1661 48.4437 18.8494 46.7966 18.6912C46.3264 18.6492 45.9051 18.9924 45.8604 19.4635C45.815 19.9346 46.1608 20.3542 46.6327 20.3997C48.1695 20.5475 49.6885 20.8429 51.1687 21.2818C51.2502 21.3058 51.3326 21.3178 51.4132 21.3178C51.598 21.3171 51.7777 21.2572 51.9258 21.1467C52.074 21.0363 52.1827 20.8812 52.2361 20.7043C52.3708 20.2496 52.1117 19.7716 51.6578 19.6368ZM41.8454 18.6904C40.1981 18.8477 38.5698 19.1638 36.9833 19.6343C36.5294 19.7691 36.2703 20.247 36.405 20.701C36.4576 20.8783 36.566 21.0339 36.7141 21.1446C36.8622 21.2553 37.0422 21.3152 37.2271 21.3154C37.3077 21.3154 37.3901 21.3034 37.4726 21.2794C38.9526 20.8402 40.4716 20.5454 42.0085 20.399C42.4796 20.3543 42.8254 19.9356 42.7808 19.4637C42.7361 18.9918 42.3173 18.6466 41.8454 18.6904ZM33.5449 21.8636C33.3252 21.444 32.8061 21.2827 32.3865 21.5023C31.6004 21.9149 30.8359 22.3674 30.0961 22.8582C29.7014 23.1199 29.5933 23.6528 29.8559 24.0475C29.9341 24.1656 30.0405 24.2625 30.1654 24.3295C30.2903 24.3964 30.4299 24.4313 30.5716 24.431C30.7346 24.431 30.8994 24.3847 31.0452 24.2877C31.7354 23.8292 32.4489 23.4067 33.1828 23.022C33.6032 22.8025 33.7645 22.2833 33.5449 21.8636ZM67.2402 54.0436C66.8111 53.842 66.3006 54.029 66.0997 54.4581C65.7492 55.2087 65.3602 55.9407 64.9344 56.6514C64.6916 57.0581 64.8229 57.585 65.2296 57.8287C65.3624 57.9091 65.5146 57.9515 65.6698 57.9514C65.9616 57.9514 66.2464 57.8021 66.4052 57.5344C66.8621 56.7731 67.2791 55.9886 67.6547 55.184C67.8554 54.7549 67.6693 54.2444 67.2402 54.0436ZM69.9424 41.861C69.8978 41.3891 69.4807 41.0475 69.0071 41.0878C68.5352 41.1324 68.1894 41.5512 68.2339 42.0231C68.3067 42.7852 68.3431 43.5504 68.3429 44.316C68.3428 45.6793 68.228 47.0402 67.9997 48.3843C67.9208 48.8511 68.2348 49.2948 68.7016 49.3745C68.7497 49.383 68.7985 49.3865 68.8466 49.3865C69.2568 49.3865 69.6198 49.0913 69.691 48.6734C70.0742 46.4235 70.1587 44.133 69.9424 41.861ZM68.3977 35.2124C68.083 34.3821 67.7255 33.5687 67.3268 32.7753C67.1131 32.3523 66.5974 32.1806 66.1743 32.3943C66.0736 32.4449 65.9838 32.5148 65.91 32.6001C65.8363 32.6854 65.7801 32.7844 65.7447 32.8914C65.7092 32.9984 65.6952 33.1114 65.7034 33.2238C65.7116 33.3363 65.7419 33.446 65.7925 33.5467C66.1647 34.287 66.4983 35.046 66.7922 35.8207C66.8539 35.9836 66.9637 36.1239 67.107 36.2229C67.2503 36.3219 67.4204 36.375 67.5946 36.3751C67.6986 36.3749 67.8018 36.356 67.8991 36.3193C68.0046 36.2794 68.1012 36.2191 68.1833 36.1419C68.2655 36.0647 68.3316 35.972 68.3779 35.8692C68.4242 35.7664 68.4498 35.6555 68.4532 35.5428C68.4566 35.4301 68.4377 35.3178 68.3977 35.2124ZM22.4581 32.3943C22.0343 32.1806 21.5185 32.3523 21.3057 32.7753C20.907 33.5687 20.5496 34.3822 20.2348 35.2124C20.1947 35.3178 20.1759 35.4301 20.1793 35.5428C20.1827 35.6555 20.2083 35.7664 20.2546 35.8692C20.3009 35.972 20.367 36.0647 20.4492 36.1419C20.5313 36.2192 20.6279 36.2795 20.7333 36.3194C20.8304 36.3561 20.9333 36.375 21.0371 36.3752C21.2114 36.375 21.3815 36.3219 21.5249 36.2229C21.6683 36.1239 21.7783 35.9837 21.8403 35.8208C22.1341 35.0461 22.4678 34.2871 22.84 33.5468C23.0528 33.1229 22.8812 32.6072 22.4581 32.3943ZM20.6312 48.3784C20.4031 47.0363 20.2886 45.6774 20.2888 44.3161C20.2888 43.5489 20.3257 42.7758 20.3969 42.0189C20.4423 41.5469 20.0965 41.1281 19.6246 41.0827C19.1569 41.0423 18.7338 41.383 18.6893 41.855C18.4734 44.1267 18.5574 46.4169 18.939 48.6667C18.9774 48.891 19.1032 49.091 19.2889 49.2226C19.4745 49.3542 19.7049 49.4067 19.9293 49.3686C20.397 49.2888 20.711 48.8452 20.6312 48.3784ZM23.6955 56.6514C23.2697 55.9408 22.8808 55.2087 22.5302 54.4581C22.3294 54.029 21.8189 53.842 21.3898 54.0436C21.1838 54.14 21.0244 54.3143 20.9467 54.5281C20.869 54.7419 20.8793 54.9778 20.9753 55.184C21.3511 55.9884 21.7682 56.7729 22.2247 57.5344C22.301 57.6617 22.409 57.7671 22.5382 57.8402C22.6674 57.9133 22.8134 57.9516 22.9618 57.9514C23.1165 57.9516 23.2683 57.9092 23.4004 57.8287C23.4971 57.7708 23.5814 57.6944 23.6486 57.6039C23.7157 57.5134 23.7644 57.4105 23.7918 57.3012C23.8192 57.1919 23.8248 57.0782 23.8083 56.9667C23.7918 56.8552 23.7535 56.7481 23.6955 56.6514ZM56.3268 40.8837H40.8851C39.9378 40.8837 39.1672 41.6542 39.1672 42.6016V52.8955C39.1672 53.8429 39.9378 54.6134 40.886 54.6134H49.1092L54.0065 59.5107C54.1265 59.6307 54.2794 59.7125 54.4459 59.7456C54.6124 59.7787 54.7849 59.7618 54.9418 59.6968C55.0984 59.6317 55.2323 59.5216 55.3265 59.3805C55.4207 59.2394 55.4711 59.0736 55.4712 58.9039V54.6133H56.3276C57.2749 54.6133 58.0455 53.8428 58.0455 52.8946V42.6015C58.0455 41.6542 57.2749 40.8837 56.3268 40.8837ZM56.3277 52.8971H54.6131C54.3856 52.8972 54.1674 52.9876 54.0065 53.1485C53.8456 53.3094 53.7551 53.5276 53.7551 53.7552V56.8324L50.0712 53.1485C49.9916 53.0687 49.897 53.0055 49.7929 52.9623C49.6888 52.9192 49.5772 52.897 49.4645 52.8971L40.8834 52.8945V42.6015L40.8851 42.5998L56.3294 42.6015L56.3277 52.8971Z" fill="white"/>
<path d="M46.8876 35.735H31.446C30.4986 35.735 29.728 36.5056 29.728 37.4529V47.7468C29.728 48.6942 30.4986 49.4648 31.446 49.4648H32.3024V53.7553C32.3026 53.9829 32.393 54.201 32.5539 54.3619C32.7148 54.5228 32.933 54.6133 33.1605 54.6135C33.3837 54.6135 33.6033 54.526 33.7672 54.3621L38.6644 49.4649H40.0254C40.253 49.4648 40.4712 49.3744 40.6321 49.2135C40.793 49.0526 40.8834 48.8344 40.8835 48.6068V42.6015L47.7484 42.5998C47.9759 42.5997 48.1941 42.5093 48.355 42.3484C48.516 42.1875 48.6064 41.9693 48.6065 41.7417V37.4528C48.6065 36.5056 47.8359 35.735 46.8876 35.735ZM46.8902 40.8836H40.8852C39.9378 40.8836 39.1672 41.6542 39.1672 42.6016V47.7485H38.3092C38.1965 47.7484 38.0849 47.7706 37.9808 47.8137C37.8767 47.8569 37.7821 47.9201 37.7025 47.9999L34.0186 51.6837V48.6065C34.0185 48.3789 33.9281 48.1607 33.7672 47.9998C33.6063 47.8389 33.3881 47.7485 33.1605 47.7484L31.4443 47.7467L31.446 37.4511L46.8902 37.4528V40.8836Z" fill="white"/>
<path d="M48.6064 45.1741H43.4577C43.2302 45.1742 43.012 45.2646 42.8511 45.4255C42.6902 45.5864 42.5997 45.8046 42.5996 46.0321C42.5997 46.2597 42.6902 46.4779 42.8511 46.6388C43.012 46.7997 43.2302 46.8901 43.4577 46.8902H48.6064C48.8339 46.8901 49.0521 46.7997 49.213 46.6388C49.3739 46.4779 49.4644 46.2597 49.4644 46.0321C49.4644 45.8046 49.3739 45.5864 49.213 45.4255C49.0521 45.2646 48.8339 45.1742 48.6064 45.1741ZM53.755 45.1741H52.0388C51.8112 45.1742 51.593 45.2646 51.4321 45.4255C51.2712 45.5864 51.1808 45.8046 51.1807 46.0321C51.1808 46.2597 51.2712 46.4779 51.4321 46.6388C51.593 46.7997 51.8112 46.8901 52.0388 46.8902H53.755C53.9826 46.8901 54.2008 46.7997 54.3617 46.6388C54.5226 46.4779 54.613 46.2597 54.6131 46.0321C54.613 45.8046 54.5226 45.5864 54.3617 45.4255C54.2008 45.2646 53.9826 45.1742 53.755 45.1741ZM53.755 48.6066H48.6064C48.1327 48.6066 47.7483 48.991 47.7483 49.4646C47.7483 49.9383 48.1327 50.3227 48.6064 50.3227H53.755C54.2286 50.3227 54.6131 49.9383 54.6131 49.4646C54.6131 48.991 54.2286 48.6066 53.755 48.6066ZM45.1739 48.6066H43.4576C42.984 48.6066 42.5995 48.991 42.5995 49.4646C42.5995 49.9383 42.984 50.3227 43.4576 50.3227H45.1739C45.6475 50.3227 46.0319 49.9383 46.0319 49.4646C46.0319 48.991 45.6476 48.6066 45.1739 48.6066ZM35.8196 66.7924C35.045 66.4985 34.286 66.1648 33.5457 65.7928C33.1226 65.5808 32.606 65.7508 32.3933 66.1738C32.3426 66.2745 32.3124 66.3843 32.3042 66.4967C32.296 66.6091 32.31 66.7221 32.3454 66.8291C32.3809 66.9361 32.4371 67.0351 32.5108 67.1204C32.5845 67.2057 32.6743 67.2756 32.7751 67.3262C33.5683 67.7253 34.3817 68.0828 35.2121 68.3972C35.3092 68.434 35.4121 68.4529 35.5159 68.453C35.6901 68.4529 35.8602 68.3998 36.0035 68.3008C36.1468 68.2018 36.2566 68.0615 36.3183 67.8986C36.3583 67.7932 36.3772 67.681 36.3738 67.5684C36.3704 67.4557 36.3448 67.3448 36.2985 67.2421C36.2521 67.1393 36.186 67.0467 36.1038 66.9695C36.0217 66.8924 35.9251 66.8322 35.8196 66.7924ZM48.1498 68.9222C48.1365 68.8102 48.1013 68.702 48.0461 68.6037C47.991 68.5054 47.9169 68.4189 47.8283 68.3493C47.7397 68.2796 47.6382 68.2281 47.5296 68.1977C47.421 68.1673 47.3075 68.1587 47.1956 68.1722C45.2957 68.3996 43.3298 68.3996 41.4223 68.1705C41.3104 68.1569 41.197 68.1656 41.0885 68.1959C40.9799 68.2262 40.8784 68.2776 40.7898 68.3472C40.7012 68.4168 40.6271 68.5032 40.5719 68.6014C40.5167 68.6996 40.4814 68.8078 40.4681 68.9197C40.4123 69.3899 40.7478 69.8173 41.2181 69.8739C42.246 69.997 43.2805 70.0589 44.3158 70.0592C45.3464 70.0592 46.3847 69.9975 47.3999 69.8764C47.871 69.8198 48.2064 69.3925 48.1498 68.9222ZM56.2375 66.1737C56.0238 65.7507 55.5082 65.579 55.0851 65.7927C54.345 66.1652 53.586 66.4989 52.8112 66.7923C52.7058 66.8322 52.6093 66.8924 52.5272 66.9696C52.4451 67.0468 52.379 67.1393 52.3327 67.2421C52.2864 67.3448 52.2608 67.4556 52.2573 67.5682C52.2539 67.6809 52.2727 67.793 52.3126 67.8984C52.3746 68.0613 52.4845 68.2015 52.628 68.3005C52.7714 68.3995 52.9415 68.4526 53.1158 68.4528C53.2193 68.4528 53.3219 68.4339 53.4186 68.397C54.2488 68.0819 55.0622 67.7244 55.8557 67.326C55.9565 67.2755 56.0463 67.2055 56.12 67.1203C56.1937 67.035 56.2499 66.936 56.2854 66.829C56.3208 66.722 56.3349 66.609 56.3267 66.4966C56.3184 66.3841 56.2881 66.2744 56.2375 66.1737Z" fill="white"/>
</svg>
