<svg width="89" height="89" viewBox="0 0 89 89" fill="none" xmlns="http://www.w3.org/2000/svg">
<circle cx="44.3159" cy="44.3159" r="44.3159" fill="#FF9500"/>
<path d="M56.2191 59.184C57.1133 59.1833 57.9708 58.8279 58.6032 58.1956C59.2357 57.5633 59.5914 56.7059 59.5923 55.8117V51.4438C59.5923 50.5491 59.2369 49.6912 58.6043 49.0586C57.9717 48.4259 57.1137 48.0706 56.2191 48.0706C55.3244 48.0706 54.4664 48.4259 53.8338 49.0586C53.2012 49.6912 52.8458 50.5491 52.8458 51.4438V55.8117C52.847 56.7059 53.2028 57.5631 53.8351 58.1953C54.4675 58.8276 55.3248 59.1831 56.2191 59.184ZM54.5682 51.4438C54.5682 51.0059 54.7421 50.586 55.0517 50.2764C55.3613 49.9668 55.7812 49.7929 56.2191 49.7929C56.6569 49.7929 57.0768 49.9668 57.3864 50.2764C57.696 50.586 57.8699 51.0059 57.8699 51.4438V55.8117C57.8699 56.2495 57.696 56.6694 57.3864 56.979C57.0768 57.2886 56.6569 57.4625 56.2191 57.4625C55.7812 57.4625 55.3613 57.2886 55.0517 56.979C54.7421 56.6694 54.5682 56.2495 54.5682 55.8117V51.4438Z" fill="white"/>
<path d="M61.877 56.7382C61.7712 56.698 61.6584 56.6791 61.5453 56.6826C61.4321 56.6861 61.3208 56.7119 61.2176 56.7586C61.1145 56.8052 61.0216 56.8718 60.9442 56.9545C60.8669 57.0371 60.8066 57.1343 60.7669 57.2403C60.4135 58.1599 59.7896 58.9507 58.9775 59.5084C58.1654 60.0661 57.2033 60.3645 56.2182 60.3642C55.233 60.3639 54.2711 60.065 53.4593 59.5068C52.6476 58.9486 52.0241 58.1575 51.6712 57.2377C51.5901 57.0241 51.4275 56.8515 51.2192 56.7579C51.0108 56.6642 50.7738 56.6571 50.5603 56.7382C50.3467 56.8193 50.1741 56.9819 50.0804 57.1902C49.9868 57.3986 49.9797 57.6356 50.0608 57.8491C50.4884 58.9555 51.2059 59.9265 52.1378 60.6603C53.0698 61.3941 54.182 61.8637 55.3579 62.0198V63.7068H53.9438C53.7154 63.7068 53.4964 63.7976 53.3349 63.9591C53.1734 64.1206 53.0827 64.3396 53.0827 64.568C53.0827 64.7964 53.1734 65.0155 53.3349 65.177C53.4964 65.3385 53.7154 65.4292 53.9438 65.4292C55.0832 65.4275 57.3558 65.4301 58.4943 65.4292C58.7227 65.4292 58.9417 65.3385 59.1032 65.177C59.2647 65.0155 59.3555 64.7964 59.3555 64.568C59.3555 64.3396 59.2647 64.1206 59.1032 63.9591C58.9417 63.7976 58.7227 63.7068 58.4943 63.7068H57.0802V62.025C58.2582 61.8719 59.3728 61.4027 60.3056 60.6672C61.2384 59.9317 61.9546 58.9572 62.3782 57.8474C62.4586 57.6337 62.4509 57.3969 62.3568 57.1889C62.2626 56.9809 62.0906 56.8188 61.877 56.7382Z" fill="white"/>
<path d="M56.2192 45.1253C55.5036 45.1275 54.7898 45.1958 54.0869 45.3294V29.0816C54.086 28.2163 53.7418 27.3866 53.1299 26.7747C52.518 26.1628 51.6884 25.8187 50.823 25.8177H47.6711V23.4693C47.6702 22.6031 47.3257 21.7727 46.7131 21.1603C46.1005 20.5479 45.27 20.2036 44.4038 20.2029H23.5573C22.6913 20.2038 21.861 20.5482 21.2486 21.1606C20.6362 21.773 20.2918 22.6033 20.2909 23.4693V59.5492C20.2918 60.4152 20.6362 61.2455 21.2486 61.8579C21.861 62.4703 22.6913 62.8147 23.5573 62.8156H27.9709L32.7547 67.4935C33.3754 68.1007 34.2116 68.437 35.0799 68.4287H50.8222C51.4948 68.43 52.1509 68.2201 52.6978 67.8285C53.8366 68.1918 55.0247 68.3766 56.22 68.3762C71.6368 67.7407 71.6437 45.7643 56.22 45.1245L56.2192 45.1253ZM22.0132 59.55V23.4685C22.0142 23.0593 22.1772 22.6672 22.4666 22.3779C22.756 22.0887 23.1482 21.9259 23.5573 21.9252H44.4038C44.8131 21.9259 45.2055 22.0888 45.4949 22.3782C45.7843 22.6677 45.9472 23.06 45.9479 23.4693V25.8177H29.9731C29.1077 25.8187 28.2781 26.1628 27.6662 26.7747C27.0543 27.3866 26.7102 28.2163 26.7092 29.0816V60.1813C26.715 60.4903 26.7616 60.7973 26.8479 61.0941H23.5582C23.1486 61.0937 22.7559 60.9307 22.4663 60.6411C22.1766 60.3515 22.0137 59.9596 22.0132 59.55ZM28.6951 61.0674H33.4712C33.6679 61.0676 33.8564 61.1458 33.9955 61.2848C34.1347 61.4238 34.2131 61.6122 34.2135 61.8089V66.4618C34.1231 66.4041 28.7537 61.1544 28.6951 61.0674ZM35.9359 66.7064V61.8089C35.935 61.1556 35.6749 60.5294 35.2129 60.0677C34.7508 59.606 34.1244 59.3464 33.4712 59.3459H28.4325V29.0816C28.4329 28.6729 28.5955 28.2811 28.8845 27.9921C29.1734 27.7031 29.5653 27.5406 29.974 27.5401H50.823C51.2317 27.5406 51.6235 27.7031 51.9125 27.9921C52.2015 28.2811 52.3641 28.6729 52.3645 29.0816V45.7953C43.1413 49.0006 41.841 61.7219 50.246 66.7064H35.9359ZM56.2192 66.6547C53.5935 66.6518 51.0762 65.6074 49.2196 63.7508C47.363 61.8941 46.3186 59.3769 46.3156 56.7512C46.8599 43.6122 65.5801 43.6165 66.1227 56.7512C66.1197 59.3769 65.0754 61.8941 63.2187 63.7508C61.3621 65.6074 58.8448 66.6518 56.2192 66.6547Z" fill="white"/>
<path d="M37.5711 33.2584H47.9053C48.1336 33.2584 48.3527 33.1676 48.5142 33.0061C48.6757 32.8446 48.7664 32.6256 48.7664 32.3972C48.7664 32.1688 48.6757 31.9497 48.5142 31.7882C48.3527 31.6267 48.1336 31.536 47.9053 31.536H37.5711C37.3427 31.536 37.1237 31.6267 36.9622 31.7882C36.8007 31.9497 36.71 32.1688 36.71 32.3972C36.71 32.6256 36.8007 32.8446 36.9622 33.0061C37.1237 33.1676 37.3427 33.2584 37.5711 33.2584ZM32.2982 38.1671H48.4934C48.7218 38.1671 48.9409 38.0763 49.1024 37.9148C49.2639 37.7533 49.3546 37.5343 49.3546 37.3059C49.3546 37.0775 49.2639 36.8584 49.1024 36.6969C48.9409 36.5354 48.7218 36.4447 48.4934 36.4447H32.2982C32.0698 36.4447 31.8507 36.5354 31.6892 36.6969C31.5277 36.8584 31.437 37.0775 31.437 37.3059C31.437 37.5343 31.5277 37.7533 31.6892 37.9148C31.8507 38.0763 32.0698 38.1671 32.2982 38.1671ZM32.2982 43.0758H38.1593C38.3877 43.0758 38.6068 42.985 38.7683 42.8235C38.9298 42.662 39.0205 42.443 39.0205 42.2146C39.0205 41.9862 38.9298 41.7672 38.7683 41.6057C38.6068 41.4441 38.3877 41.3534 38.1593 41.3534H32.2982C32.0698 41.3534 31.8507 41.4441 31.6892 41.6057C31.5277 41.7672 31.437 41.9862 31.437 42.2146C31.437 42.443 31.5277 42.662 31.6892 42.8235C31.8507 42.985 32.0698 43.0758 32.2982 43.0758ZM48.4934 41.3534H41.604C41.3756 41.3534 41.1566 41.4441 40.9951 41.6057C40.8336 41.7672 40.7428 41.9862 40.7428 42.2146C40.7428 42.443 40.8336 42.662 40.9951 42.8235C41.1566 42.985 41.3756 43.0758 41.604 43.0758H48.4934C48.7218 43.0758 48.9409 42.985 49.1024 42.8235C49.2639 42.662 49.3546 42.443 49.3546 42.2146C49.3546 41.9862 49.2639 41.7672 49.1024 41.6057C48.9409 41.4441 48.7218 41.3534 48.4934 41.3534ZM32.2982 47.9845H45.0487C45.2771 47.9845 45.4962 47.8937 45.6577 47.7322C45.8192 47.5707 45.9099 47.3517 45.9099 47.1233C45.9099 46.8949 45.8192 46.6759 45.6577 46.5144C45.4962 46.3529 45.2771 46.2621 45.0487 46.2621H32.2982C32.0698 46.2621 31.8507 46.3529 31.6892 46.5144C31.5277 46.6759 31.437 46.8949 31.437 47.1233C31.437 47.3517 31.5277 47.5707 31.6892 47.7322C31.8507 47.8937 32.0698 47.9845 32.2982 47.9845ZM42.7382 51.1708H32.2982C32.0698 51.1708 31.8507 51.2616 31.6892 51.4231C31.5277 51.5846 31.437 51.8036 31.437 52.032C31.437 52.2604 31.5277 52.4794 31.6892 52.6409C31.8507 52.8024 32.0698 52.8932 32.2982 52.8932H42.7382C42.9666 52.8932 43.1856 52.8024 43.3471 52.6409C43.5086 52.4794 43.5994 52.2604 43.5994 52.032C43.5994 51.8036 43.5086 51.5846 43.3471 51.4231C43.1856 51.2616 42.9666 51.1708 42.7382 51.1708ZM42.4652 56.9407C42.4652 56.7123 42.3745 56.4933 42.213 56.3318C42.0515 56.1703 41.8324 56.0795 41.604 56.0795H34.7146C34.4862 56.0795 34.2672 56.1703 34.1057 56.3318C33.9442 56.4933 33.8534 56.7123 33.8534 56.9407C33.8534 57.1691 33.9442 57.3881 34.1057 57.5497C34.2672 57.7112 34.4862 57.8019 34.7146 57.8019H41.604C41.8324 57.8019 42.0515 57.7112 42.213 57.5497C42.3745 57.3881 42.4652 57.1691 42.4652 56.9407ZM42.7382 60.9882H39.6862C39.4578 60.9882 39.2387 61.079 39.0772 61.2405C38.9157 61.402 38.825 61.621 38.825 61.8494C38.825 62.0778 38.9157 62.2969 39.0772 62.4584C39.2387 62.6199 39.4578 62.7106 39.6862 62.7106H42.7382C42.9666 62.7106 43.1856 62.6199 43.3471 62.4584C43.5086 62.2969 43.5994 62.0778 43.5994 61.8494C43.5994 61.621 43.5086 61.402 43.3471 61.2405C43.1856 61.079 42.9666 60.9882 42.7382 60.9882Z" fill="white"/>
</svg>
