<svg width="89" height="89" viewBox="0 0 89 89" fill="none" xmlns="http://www.w3.org/2000/svg">
<circle cx="44.3159" cy="44.3159" r="44.3159" fill="#FF9500"/>
<path d="M60.3262 24.1425H55.38V21.9297C55.38 21.2138 54.599 20.8884 53.8831 20.8884H50.0433C49.1322 18.2851 46.8543 16.9835 44.2509 16.9835C41.6763 16.8867 39.3345 18.4654 38.4586 20.8884H34.6838C33.9679 20.8884 33.252 21.2138 33.252 21.9297V24.1425H28.3056C25.3744 24.1738 22.9764 26.4861 22.8386 29.4141V66.7064C22.8386 69.5701 25.4419 71.6527 28.3056 71.6527H60.3262C63.1899 71.6527 65.7932 69.5701 65.7932 66.7064V29.4143C65.6554 26.4861 63.2574 24.1738 60.3262 24.1425ZM35.8552 23.4917H39.4347C39.7391 23.4546 40.0236 23.3207 40.2462 23.1098C40.4688 22.899 40.6178 22.6222 40.6714 22.3203C41.0568 20.6418 42.5294 19.4369 44.2509 19.3916C45.9566 19.4433 47.407 20.6519 47.7654 22.3203C47.8221 22.632 47.9807 22.9162 48.2162 23.1282C48.4518 23.3402 48.751 23.468 49.067 23.4917H52.7768V28.6983H35.8552V23.4917ZM63.1899 66.7065C63.1899 68.1384 61.7581 69.0495 60.3262 69.0495H28.3056C26.8738 69.0495 25.4419 68.1384 25.4419 66.7065V29.4143C25.5747 27.9239 26.8095 26.7732 28.3056 26.7459H33.2519V30.0652C33.3206 30.7944 33.9522 31.3399 34.6837 31.3018H53.883C54.2422 31.3214 54.5957 31.2051 54.8731 30.976C55.1504 30.7468 55.3314 30.4216 55.3798 30.0652V26.7458H60.3261C61.8221 26.7732 63.057 27.9238 63.1898 29.4141V66.7065H63.1899Z" fill="white"/>
<path d="M39.3046 46.0754C38.8164 45.5608 38.006 45.5317 37.4823 46.0104L33.317 49.9803L31.5597 48.158C31.0715 47.6434 30.2611 47.6145 29.7374 48.093C29.4947 48.3472 29.3593 48.6852 29.3593 49.0366C29.3593 49.3881 29.4947 49.7261 29.7374 49.9803L32.4057 52.7138C32.5198 52.8416 32.6605 52.9428 32.8179 53.0102C32.9753 53.0777 33.1456 53.1098 33.3168 53.1044C33.6602 53.0995 33.9877 52.9591 34.2279 52.7138L39.3044 47.8977C39.8077 47.4361 39.8413 46.6538 39.3795 46.1506C39.3558 46.1243 39.3308 46.0992 39.3046 46.0754ZM57.9834 48.8739H43.0144C42.2955 48.8739 41.7127 49.4566 41.7127 50.1755C41.7127 50.8945 42.2955 51.4772 43.0144 51.4772H57.9834C58.7023 51.4772 59.285 50.8945 59.285 50.1755C59.285 49.4566 58.7023 48.8739 57.9834 48.8739ZM39.3046 35.6622C38.8164 35.1475 38.006 35.1185 37.4823 35.5971L33.317 39.5671L31.5597 37.7447C31.0715 37.2301 30.2611 37.2011 29.7374 37.6797C29.4947 37.934 29.3593 38.2719 29.3593 38.6234C29.3593 38.9749 29.4947 39.3129 29.7374 39.5671L32.4057 42.3006C32.5198 42.4283 32.6605 42.5295 32.8179 42.597C32.9753 42.6645 33.1456 42.6966 33.3168 42.6911C33.6602 42.6863 33.9877 42.5459 34.2279 42.3006L39.3044 37.4845C39.8077 37.0229 39.8413 36.2405 39.3795 35.7374C39.3558 35.7111 39.3308 35.686 39.3046 35.6622ZM57.9834 38.4607H43.0144C42.2955 38.4607 41.7127 39.0434 41.7127 39.7623C41.7127 40.4812 42.2955 41.064 43.0144 41.064H57.9834C58.7023 41.064 59.285 40.4812 59.285 39.7623C59.285 39.0434 58.7023 38.4607 57.9834 38.4607ZM39.3046 56.4885C38.8164 55.9739 38.006 55.945 37.4823 56.4235L33.317 60.3934L31.5597 58.5711C31.0715 58.0565 30.2611 58.0276 29.7374 58.5061C29.4947 58.7603 29.3593 59.0983 29.3593 59.4498C29.3593 59.8012 29.4947 60.1392 29.7374 60.3934L32.4057 63.1269C32.5198 63.2547 32.6605 63.3559 32.8179 63.4233C32.9753 63.4908 33.1456 63.5229 33.3168 63.5175C33.6602 63.5126 33.9877 63.3722 34.2279 63.1269L39.3044 58.3109C39.8077 57.8492 39.8413 57.0669 39.3795 56.5637C39.3557 56.5375 39.3307 56.5124 39.3046 56.4885ZM57.9834 59.2871H43.0144C42.2955 59.2871 41.7127 59.8699 41.7127 60.5888C41.7127 61.3077 42.2955 61.8904 43.0144 61.8904H57.9834C58.7023 61.8904 59.285 61.3077 59.285 60.5888C59.285 59.8699 58.7023 59.2871 57.9834 59.2871Z" fill="white"/>
</svg>
