<svg width="43" height="43" viewBox="0 0 43 43" fill="none" xmlns="http://www.w3.org/2000/svg">
<path d="M12.5304 20.7061V22.3496C12.5304 22.8084 12.9058 23.1839 13.3646 23.1839C13.8235 23.1839 14.1989 22.8084 14.1989 22.3496V20.6227C15.2 20.3641 15.9841 19.5465 16.1844 18.5204H18.2283C18.6871 18.5204 19.0625 18.145 19.0625 17.6862C19.0625 17.2273 18.6871 16.8519 18.2283 16.8519H16.2344V14.7663H18.2283C18.6871 14.7663 19.0625 14.3909 19.0625 13.9321C19.0625 13.4732 18.6871 13.0978 18.2283 13.0978H16.2344V11.0122H18.2283C18.6871 11.0122 19.0625 10.6368 19.0625 10.178C19.0625 9.71913 18.6871 9.34372 18.2283 9.34372H16.151C15.9091 8.38433 15.1499 7.63351 14.1989 7.39158V5.29762C14.1989 4.83879 13.8235 4.46338 13.3646 4.46338C12.9058 4.46338 12.5304 4.83879 12.5304 5.29762V7.29147H10.5949V5.29762C10.5949 4.83879 10.2195 4.46338 9.76067 4.46338C9.30184 4.46338 8.92643 4.83879 8.92643 5.29762V7.29147H6.99932V5.29762C6.99932 4.83879 6.62391 4.46338 6.16508 4.46338C5.70624 4.46338 5.33083 4.83879 5.33083 5.29762V7.29981C4.16289 7.39158 3.19516 8.22583 2.91986 9.32703H0.834246C0.375411 9.32703 0 9.70244 0 10.1613C0 10.6201 0.375411 10.9955 0.834246 10.9955H2.82809V13.0811H0.834246C0.375411 13.0811 0 13.4565 0 13.9154C0 14.3742 0.375411 14.7496 0.834246 14.7496H2.82809V16.8352H0.834246C0.375411 16.8352 0 17.2107 0 17.6695C0 18.1283 0.375411 18.5037 0.834246 18.5037H2.87815C3.11174 19.68 4.10449 20.5893 5.32249 20.6811V22.3329C5.32249 22.7918 5.6979 23.1672 6.15673 23.1672C6.61557 23.1672 6.99098 22.7918 6.99098 22.3329V20.6895H8.92643V22.3329C8.92643 22.7918 9.30184 23.1672 9.76067 23.1672C10.2195 23.1672 10.5949 22.7918 10.5949 22.3329V20.6895H12.5304V20.7061ZM4.49658 17.9948V10.0028C4.49658 9.42714 4.96376 8.95996 5.53939 8.95996H13.5315C14.1071 8.95996 14.5743 9.42714 14.5743 10.0028V17.9948C14.5743 18.5705 14.1071 19.0377 13.5315 19.0377H5.53939C4.96376 19.0377 4.49658 18.5705 4.49658 17.9948Z" fill="white"/>
<path d="M6.24039 17.6362C6.67419 17.7864 7.14971 17.5444 7.29988 17.1106L7.50844 16.5016H9.33544L9.544 17.1106C9.66079 17.461 9.98615 17.6779 10.3365 17.6779C10.4283 17.6779 10.5117 17.6612 10.6035 17.6362C11.0373 17.486 11.2792 17.0189 11.1291 16.5767L10.737 15.4171L9.21864 10.8788C9.10185 10.5368 8.78484 10.3115 8.42611 10.3115C8.06738 10.3115 7.75037 10.5368 7.63358 10.8788L6.11525 15.4171L5.72315 16.5767C5.56465 17.0189 5.79824 17.4944 6.24039 17.6362ZM8.76815 14.8331H8.05904L8.41777 13.7736L8.76815 14.8331ZM12.5723 17.6863C13.0311 17.6863 13.4066 17.3108 13.4066 16.852V11.1541C13.4066 10.6953 13.0311 10.3199 12.5723 10.3199C12.1135 10.3199 11.7381 10.6953 11.7381 11.1541V16.852C11.7381 17.3108 12.1051 17.6863 12.5723 17.6863Z" fill="white"/>
<path d="M27.9557 29.7909L30.2999 29.1736C30.8505 29.0318 31.3094 28.648 31.5596 28.1308C31.8099 27.6135 31.8183 27.0212 31.5847 26.4956L29.182 21.0397C28.8317 20.2388 28.6731 19.3295 28.7399 18.4035C28.7649 18.0114 28.7816 17.6109 28.7816 17.2105C28.7816 12.6055 26.988 8.27572 23.7261 5.02216C20.4642 1.78529 16.1428 0 11.5461 0H11.5127C11.0539 0 10.6785 0.375411 10.6785 0.834246C10.6785 1.29308 11.0539 1.66849 11.5127 1.66849H11.5461C15.6923 1.66849 19.5966 3.27859 22.5331 6.21513C25.478 9.15168 27.0964 13.0643 27.0964 17.2272C27.0964 17.5859 27.0881 17.9446 27.0631 18.3034C26.9796 19.4963 27.1798 20.6726 27.647 21.7238L30.0497 27.1797C30.0914 27.2798 30.0663 27.3716 30.0497 27.4133C30.0246 27.455 29.9746 27.5385 29.8661 27.5635L27.5219 28.1808C26.8044 28.3727 26.2622 28.965 26.137 29.6908L24.9274 36.5149C24.7772 37.3575 24.0264 37.9665 23.1671 37.9332L16.9854 37.6829C15.1834 37.6078 13.7735 36.1395 13.7735 34.3376V33.5617C13.7735 33.1029 13.3981 32.7275 12.9393 32.7275C12.4804 32.7275 12.105 33.1029 12.105 33.5617V34.3376C12.105 36.7652 13.8152 38.7924 16.1177 39.2513V41.8791C16.1177 42.338 16.4932 42.7134 16.952 42.7134C17.4108 42.7134 17.7862 42.338 17.7862 41.8791V39.3764L23.1004 39.5933H23.2339C24.8606 39.5933 26.2789 38.417 26.5625 36.7986L27.7722 29.9744C27.7972 29.891 27.8639 29.8159 27.9557 29.7909ZM42.3548 36.298C42.3047 36.0978 42.2547 35.7391 42.2213 35.4888C42.1462 34.9466 42.0628 34.3292 41.8793 33.812C41.4788 32.6857 40.7197 32.5189 40.3109 32.5189C39.3348 32.5189 39.0178 33.4449 38.9177 33.8453C38.8009 34.3376 38.7759 34.9215 38.7508 35.5472C38.7258 36.1062 38.6758 37.224 38.4755 37.5411C38.4088 37.4493 38.292 37.2324 38.1669 36.7152C38.025 36.1395 37.9249 35.4221 37.8332 34.7213C37.7247 33.8954 37.6163 33.1196 37.4411 32.4855C37.1491 31.4677 36.6235 30.9422 35.8977 30.9422C35.5724 30.9422 35.2637 31.0757 35.0301 31.3092C34.321 32.0267 34.3126 33.6868 34.346 36.3481C34.3544 36.8069 34.3627 37.3825 34.3544 37.9415C34.321 37.758 34.2876 37.5911 34.2626 37.4493C34.1291 36.7569 33.9956 36.0478 33.8121 35.4888C33.4951 34.5545 33.0029 34.0873 32.3438 34.0873C31.0841 34.0873 30.7421 35.3386 30.5419 36.0811C30.4918 36.2647 30.4167 36.5483 30.35 36.7068C29.9078 36.6234 29.6242 36.1646 29.2404 35.4554L29.2321 35.4388C29.0152 35.0383 28.5063 34.8882 28.0975 35.1051C27.6971 35.322 27.5469 35.8309 27.7638 36.2396L27.7722 36.2563C28.231 37.1073 28.9318 38.3836 30.4918 38.3836C31.6514 38.3836 31.9684 37.2074 32.152 36.5066C32.1853 36.3898 32.2187 36.248 32.2687 36.1062C32.4106 36.5733 32.5357 37.2658 32.6275 37.7413C32.761 38.4587 32.9028 39.1929 33.103 39.7768C33.4283 40.7362 33.9456 41.2201 34.6297 41.2201C34.93 41.2201 35.2136 41.1033 35.4305 40.878C36.0562 40.244 36.0646 38.8759 36.0312 36.3064C36.0229 35.5973 36.0062 34.6295 36.0479 33.8287C36.1063 34.2124 36.1647 34.6045 36.2064 34.9132C36.3232 35.8142 36.4483 36.7485 36.6819 37.491C37.0406 38.6339 37.6496 39.2095 38.4839 39.2095C38.9677 39.2095 39.8354 39.0093 40.2024 37.6912C40.3776 37.0655 40.411 36.3147 40.4444 35.5806C40.4527 35.3887 40.461 35.1551 40.4777 34.9215C40.5278 35.1968 40.5611 35.4805 40.5862 35.6723C40.6362 36.0728 40.6863 36.4482 40.778 36.7569C41.0283 37.6495 41.5873 37.783 41.8959 37.783C42.3548 37.783 42.7302 37.4076 42.7302 36.9487C42.7135 36.6985 42.5717 36.4482 42.3548 36.298Z" fill="white"/>
</svg>
