<svg width="39" height="41" viewBox="0 0 39 41" fill="none" xmlns="http://www.w3.org/2000/svg">
<path d="M30.6487 36.5328H32.8145C35.5234 36.5328 37.7196 34.3366 37.7196 31.627V31.0423C37.7196 29.3135 36.7035 27.8223 35.2373 27.1314M35.2373 27.1314C35.2389 27.1744 35.2389 27.2182 35.2389 27.2619V28.5249C35.2389 29.5206 34.4307 30.328 33.4358 30.328H33.3991C32.9012 30.328 32.4503 30.1263 32.1236 29.7997C31.7976 29.4737 31.596 29.0228 31.596 28.5249C31.596 28.0271 31.7976 27.5761 32.1236 27.2502C32.4503 26.9235 32.9012 26.7219 33.3991 26.7219C34.0564 26.7219 34.6793 26.8688 35.2373 27.1314ZM35.2373 27.1314C35.2137 25.3603 34.7 23.6303 33.7531 22.1333M1.00952 32.675L0.918072 32.8556C0.708756 33.27 0.599793 33.7278 0.599976 34.192V36.4789C0.599976 38.1163 1.92707 39.4434 3.56445 39.4434H22.8933" stroke="white" stroke-width="1.2" stroke-miterlimit="10" stroke-linecap="round" stroke-linejoin="round"/>
<path d="M2.23962 30.2384L5.97315 22.8417C6.22029 22.3518 6.59853 21.9402 7.06577 21.6527C7.533 21.3651 8.07089 21.2128 8.61953 21.2129H22.6298C23.749 21.2129 24.7721 21.8428 25.2762 22.8417L30.3314 32.8558C30.5408 33.2701 30.6495 33.7281 30.6495 34.1923V36.4792C30.6495 38.1165 29.3224 39.4436 27.685 39.4436H25.6287" stroke="white" stroke-width="1.2" stroke-miterlimit="10" stroke-linecap="round" stroke-linejoin="round"/>
<path d="M22.4878 32.8562L19.8205 23.5609M11.4284 23.5609L8.76195 32.8562M15.6249 23.5609V32.8562M24.2135 25.9456H7.03626M25.7764 29.0417H5.47337M5.85493 32.8562H25.3947C26.4524 32.8562 27.1386 31.7411 26.662 30.7968L23.1803 23.8998C23.1293 23.7976 23.0507 23.7118 22.9535 23.6519C22.8563 23.592 22.7443 23.5605 22.6301 23.5609H8.61955C8.50537 23.5605 8.39335 23.592 8.29614 23.6519C8.19892 23.7118 8.12036 23.7976 8.06933 23.8998L4.58762 30.7968C4.11102 31.7411 4.79724 32.8562 5.85493 32.8562ZM20.4266 16.4038C21.1589 16.4038 21.7525 16.9974 21.7525 17.7297V21.2131H19.1008V17.7297C19.1008 16.9974 19.6944 16.4038 20.4266 16.4038ZM10.8231 16.4038C11.5553 16.4038 12.1489 16.9974 12.1489 17.7297V21.2131H9.49717V17.7297C9.49725 16.9974 10.0908 16.4038 10.8231 16.4038Z" stroke="white" stroke-width="1.2" stroke-miterlimit="10" stroke-linecap="round" stroke-linejoin="round"/>
<path d="M23.8155 2.50291C28.0437 5.47059 31.6671 9.21738 34.4917 13.5425C36.1525 16.0857 35.9743 19.4113 34.0649 21.7731H34.0641C33.0815 22.9888 31.7476 23.8715 30.2446 24.3007L30.0813 24.3476C29.7957 24.429 29.4913 24.4139 29.2152 24.3046C28.9391 24.1954 28.7067 23.9982 28.5541 23.7435L25.3802 18.4366C25.2347 18.1933 25.1696 17.9103 25.1942 17.6279C25.2187 17.3454 25.3317 17.0779 25.517 16.8634L27.4654 14.6093C25.7592 12.4311 23.7952 10.467 21.6177 8.76089L19.3629 10.7093C19.1483 10.8946 18.8808 11.0076 18.5984 11.0321C18.316 11.0567 18.033 10.9916 17.7896 10.8461L12.4828 7.67217C12.2281 7.51956 12.0309 7.28719 11.9216 7.01109C11.8124 6.73498 11.7973 6.43056 11.8787 6.145L11.9248 5.98399C12.354 4.48012 13.237 3.1454 14.4531 2.16215V2.16137C16.4547 0.543529 19.148 0.16916 21.4708 1.10313" stroke="white" stroke-width="1.2" stroke-miterlimit="10" stroke-linecap="round" stroke-linejoin="round"/>
<path d="M27.4657 14.6091C29.5312 17.2443 31.1995 20.1679 32.4173 23.2868M12.9401 3.80957C16.0585 5.02752 18.9819 6.69551 21.6171 8.76046H21.6178" stroke="white" stroke-width="1.2" stroke-miterlimit="10" stroke-linecap="round" stroke-linejoin="round"/>
</svg>
