<svg width="40" height="40" viewBox="0 0 40 40" fill="none" xmlns="http://www.w3.org/2000/svg">
<path d="M23.0673 34.9305C22.8925 34.9305 22.7249 34.9999 22.6013 35.1235C22.4777 35.2471 22.4082 35.4148 22.4082 35.5896C22.4082 36.2887 22.1305 36.9593 21.6361 37.4537C21.1417 37.9481 20.4712 38.2258 19.772 38.2258H3.95439C3.25521 38.2258 2.58467 37.9481 2.09028 37.4537C1.59588 36.9593 1.31813 36.2887 1.31813 35.5896V3.95439C1.31813 3.25521 1.59588 2.58467 2.09028 2.09028C2.58467 1.59588 3.25521 1.31813 3.95439 1.31813H4.20616L5.63699 4.1798C5.80031 4.50887 6.0525 4.78565 6.36502 4.97877C6.67754 5.1719 7.03789 5.27366 7.40526 5.27253H16.3211C16.6885 5.27366 17.0488 5.1719 17.3613 4.97877C17.6739 4.78565 17.9261 4.50887 18.0894 4.1798L19.5202 1.31813H19.772C20.4712 1.31813 21.1417 1.59588 21.6361 2.09028C22.1305 2.58467 22.4082 3.25521 22.4082 3.95439V5.27253C22.4082 5.44732 22.4777 5.61496 22.6013 5.73856C22.7249 5.86215 22.8925 5.93159 23.0673 5.93159C23.2421 5.93159 23.4097 5.86215 23.5333 5.73856C23.6569 5.61496 23.7264 5.44732 23.7264 5.27253V3.95439C23.7253 2.90595 23.3084 1.90074 22.567 1.15937C21.8256 0.418006 20.8204 0.00104688 19.772 0L3.95439 0C2.90595 0.00104688 1.90074 0.418006 1.15937 1.15937C0.418006 1.90074 0.00104688 2.90595 0 3.95439L0 35.5896C0.00104688 36.638 0.418006 37.6432 1.15937 38.3846C1.90074 39.1259 2.90595 39.5429 3.95439 39.5439H19.772C20.8204 39.5429 21.8256 39.1259 22.567 38.3846C23.3084 37.6432 23.7253 36.638 23.7264 35.5896C23.7264 35.4148 23.6569 35.2471 23.5333 35.1235C23.4097 34.9999 23.2421 34.9305 23.0673 34.9305ZM16.9103 3.58993C16.856 3.69973 16.772 3.79209 16.6679 3.85652C16.5637 3.92095 16.4436 3.95486 16.3211 3.95439H7.40526C7.28279 3.95486 7.16264 3.92095 7.05848 3.85652C6.95432 3.79209 6.87033 3.69973 6.81606 3.58993L5.67983 1.31813H18.0465L16.9103 3.58993Z" fill="white"/>
<path d="M17.136 36.9077C17.3108 36.9077 17.4785 36.8383 17.6021 36.7147C17.7257 36.5911 17.7951 36.4234 17.7951 36.2487C17.7951 36.0739 17.7257 35.9062 17.6021 35.7826C17.4785 35.659 17.3108 35.5896 17.136 35.5896H6.59098C6.41619 35.5896 6.24855 35.659 6.12495 35.7826C6.00136 35.9062 5.93192 36.0739 5.93192 36.2487C5.93192 36.4234 6.00136 36.5911 6.12495 36.7147C6.24855 36.8383 6.41619 36.9077 6.59098 36.9077H17.136ZM35.5899 7.24976H17.136C16.0876 7.2508 15.0824 7.66776 14.341 8.40913C13.5996 9.15049 13.1827 10.1557 13.1816 11.2042V15.4222L5.96685 19.2698C5.75661 19.3824 5.58087 19.55 5.45835 19.7546C5.33583 19.9592 5.27112 20.1932 5.27112 20.4317C5.27112 20.6702 5.33583 20.9043 5.45835 21.1089C5.58087 21.3135 5.75661 21.481 5.96685 21.5937L13.1816 25.44V29.658C13.1827 30.7064 13.5996 31.7117 14.341 32.453C15.0824 33.1944 16.0876 33.6113 17.136 33.6124H35.5899C36.6383 33.6113 37.6435 33.1944 38.3849 32.453C39.1263 31.7117 39.5432 30.7064 39.5443 29.658V11.2042C39.5432 10.1557 39.1263 9.15049 38.3849 8.40913C37.6435 7.66776 36.6383 7.2508 35.5899 7.24976ZM38.2261 29.658C38.2261 30.3572 37.9484 31.0277 37.454 31.5221C36.9596 32.0165 36.2891 32.2943 35.5899 32.2943H17.136C16.4369 32.2943 15.7663 32.0165 15.2719 31.5221C14.7775 31.0277 14.4998 30.3572 14.4998 29.658V25.0445C14.4999 24.925 14.4675 24.8078 14.4061 24.7053C14.3447 24.6027 14.2565 24.5189 14.1511 24.4626L6.59098 20.4311L14.1531 16.3982C14.258 16.3418 14.3455 16.258 14.4066 16.1558C14.4676 16.0535 14.4998 15.9367 14.4998 15.8176V11.2042C14.4998 10.505 14.7775 9.83443 15.2719 9.34003C15.7663 8.84564 16.4369 8.56789 17.136 8.56789H35.5899C36.2891 8.56789 36.9596 8.84564 37.454 9.34003C37.9484 9.83443 38.2261 10.505 38.2261 11.2042V29.658Z" fill="white"/>
<path d="M28.438 13.0494C28.225 12.6882 27.9214 12.3888 27.5574 12.1809C27.1933 11.9729 26.7812 11.8635 26.3619 11.8635C25.9426 11.8635 25.5306 11.9729 25.1665 12.1809C24.8024 12.3888 24.4989 12.6882 24.2859 13.0494L17.4514 24.8275C17.2453 25.1794 17.1367 25.5798 17.1367 25.9875C17.1367 26.3952 17.2453 26.7956 17.4514 27.1474C17.6606 27.5124 17.9632 27.8151 18.328 28.0246C18.6928 28.2341 19.1067 28.3429 19.5274 28.3397H33.1977C33.619 28.3434 34.0336 28.235 34.399 28.0254C34.7645 27.8159 35.0676 27.5129 35.2771 27.1474C35.4826 26.7953 35.5907 26.3948 35.5901 25.987C35.5895 25.5793 35.4803 25.1791 35.2738 24.8275L28.438 13.0494ZM34.1349 26.4943C33.9405 26.8265 33.5826 27.0282 33.1977 27.0216H19.5274C19.338 27.0242 19.1514 26.9763 18.9866 26.8828C18.8219 26.7893 18.6851 26.6536 18.5902 26.4897C18.4999 26.3385 18.4523 26.1656 18.4523 25.9895C18.4523 25.8133 18.4999 25.6405 18.5902 25.4892L25.4274 13.7084C25.5244 13.5471 25.6615 13.4137 25.8254 13.321C25.9893 13.2283 26.1743 13.1797 26.3626 13.1797C26.5508 13.1797 26.7359 13.2283 26.8998 13.321C27.0636 13.4137 27.2007 13.5471 27.2978 13.7084L34.133 25.4892C34.3175 25.797 34.3182 26.1813 34.1349 26.4897V26.4943Z" fill="white"/>
<path d="M26.3627 15.8176C26.1879 15.8176 26.0202 15.8871 25.8966 16.0107C25.773 16.1343 25.7036 16.3019 25.7036 16.4767V21.7492C25.7036 21.924 25.773 22.0917 25.8966 22.2152C26.0202 22.3388 26.1879 22.4083 26.3627 22.4083C26.5375 22.4083 26.7051 22.3388 26.8287 22.2152C26.9523 22.0917 27.0217 21.924 27.0217 21.7492V16.4767C27.0217 16.3019 26.9523 16.1343 26.8287 16.0107C26.7051 15.8871 26.5375 15.8176 26.3627 15.8176ZM26.3627 23.7264C26.1879 23.7264 26.0202 23.7959 25.8966 23.9195C25.773 24.0431 25.7036 24.2107 25.7036 24.3855V25.0445C25.7036 25.2193 25.773 25.387 25.8966 25.5106C26.0202 25.6342 26.1879 25.7036 26.3627 25.7036C26.5375 25.7036 26.7051 25.6342 26.8287 25.5106C26.9523 25.387 27.0217 25.2193 27.0217 25.0445V24.3855C27.0217 24.2107 26.9523 24.0431 26.8287 23.9195C26.7051 23.7959 26.5375 23.7264 26.3627 23.7264Z" fill="white"/>
</svg>
