<svg width="37" height="37" viewBox="0 0 37 37" fill="none" xmlns="http://www.w3.org/2000/svg">
<path d="M34.2706 3.54525H32.9334C32.4064 1.50969 30.5593 1.79273e-06 28.3618 1.79273e-06H24.9123C24.3117 -0.000636017 23.7233 0.168926 23.2152 0.489037C22.707 0.809148 22.3 1.2667 22.0412 1.80867C21.5965 1.88929 21.1841 2.09572 20.8531 2.4035C20.5221 2.71129 20.2862 3.10752 20.1735 3.54525H18.9078C17.6044 3.54525 16.5443 4.60528 16.5449 5.93653L17.0554 16.6568C17.0836 17.2637 17.3446 17.8364 17.7843 18.2557C18.224 18.675 18.8084 18.9087 19.416 18.908H20.6805V19.8451C20.6809 20.2233 20.8314 20.5858 21.0988 20.8532C21.3661 21.1206 21.7287 21.271 22.1068 21.2715C22.4879 21.2715 22.846 21.1232 23.1155 20.8538L25.0612 18.908H33.7624C34.3701 18.9088 34.9547 18.6752 35.3945 18.2559C35.8343 17.8366 36.0954 17.2638 36.1236 16.6568L36.6341 5.90876C36.6341 4.60528 35.5741 3.54525 34.2706 3.54525ZM21.2713 4.13613C21.2713 3.48439 21.8014 2.95438 22.4531 2.95438H22.8791L23.0138 2.55022C23.1463 2.15155 23.4011 1.80477 23.7419 1.55911C24.0827 1.31346 24.4922 1.18142 24.9123 1.18175H28.3618C30.317 1.18175 31.9071 2.7718 31.9071 4.72701C31.9037 5.36828 31.6906 5.99084 31.3003 6.49963H30.1339C29.554 6.50159 28.987 6.32877 28.5068 6.00372C28.0266 5.67866 27.6555 5.21646 27.4418 4.67737L26.7204 2.87343L26.097 3.80819C25.7882 4.27304 25.369 4.65418 24.877 4.91761C24.385 5.18104 23.8354 5.31855 23.2774 5.31788H22.4531V6.49963H21.8622C21.8002 6.49963 21.7417 6.51145 21.6814 6.51795C21.416 6.06725 21.2745 5.55435 21.2713 5.03131V4.13613ZM30.7248 8.86313V7.68138H31.3162C31.6418 7.68138 31.9071 7.94668 31.9071 8.27226C31.9071 8.59783 31.6418 8.86313 31.3162 8.86313H30.7248ZM27.833 11.7171C27.6363 11.8146 27.4709 11.9652 27.3555 12.152C27.2401 12.3387 27.1793 12.554 27.1801 12.7735V14.181C27.1795 14.2976 27.1445 14.4114 27.0795 14.5082C27.0145 14.605 26.9223 14.6804 26.8146 14.725C26.7069 14.7697 26.5884 14.7815 26.474 14.759C26.3595 14.7365 26.2543 14.6808 26.1715 14.5988C26.1163 14.5441 26.0726 14.479 26.0429 14.4073C26.0132 14.3356 25.998 14.2586 25.9983 14.181V12.7735C25.999 12.5539 25.9382 12.3384 25.8226 12.1516C25.7071 11.9648 25.5416 11.814 25.3448 11.7165L24.6145 11.3513C24.3193 11.205 24.071 10.9788 23.8979 10.6985C23.7247 10.4181 23.6336 10.0949 23.6348 9.7654V6.48604C24.6709 6.40541 25.6485 5.97373 26.406 5.26234C26.6841 5.89227 27.118 6.44103 27.6668 6.85691C28.2157 7.27279 28.8613 7.54209 29.543 7.63943V9.76658C29.5442 10.096 29.453 10.4191 29.2798 10.6993C29.1067 10.9795 28.8584 11.2056 28.5633 11.3519L27.833 11.7171ZM22.4531 8.86313H21.8622C21.5366 8.86313 21.2713 8.59783 21.2713 8.27226C21.2713 7.94668 21.5366 7.68138 21.8622 7.68138H22.4531V8.86313ZM19.416 17.7263C19.1122 17.7266 18.8199 17.6098 18.6 17.4001C18.3802 17.1905 18.2496 16.9041 18.2354 16.6006L17.7261 5.90876C17.7261 5.25702 18.2561 4.72701 18.9078 4.72701H20.0896V5.03131C20.0896 5.72736 20.2728 6.41514 20.6066 7.02315C20.4426 7.18718 20.3125 7.38193 20.2238 7.59626C20.1351 7.81059 20.0895 8.04029 20.0896 8.27226C20.0896 9.24957 20.8849 10.0449 21.8622 10.0449H22.472C22.5165 10.5439 22.6882 11.0232 22.9707 11.437C23.2532 11.8508 23.6371 12.1852 24.0857 12.4084L24.8166 12.7735V13.7349L23.2514 14.1822C22.512 14.3962 21.8619 14.8441 21.3984 15.4586C20.935 16.0731 20.6831 16.8212 20.6805 17.591V17.7263H19.416ZM24.572 17.7263L22.28 20.0183C22.1393 20.1595 21.8622 20.0449 21.8622 19.8451V17.591C21.8639 17.0778 22.0318 16.5789 22.3408 16.1692C22.6499 15.7595 23.0834 15.461 23.5763 15.3184L24.9814 14.9172C25.1209 15.2266 25.3469 15.4891 25.6322 15.673C25.9175 15.8569 26.2498 15.9543 26.5892 15.9536C26.9283 15.9527 27.2599 15.8546 27.5449 15.6709C27.8299 15.4872 28.0562 15.2257 28.197 14.9172L29.6021 15.3184C30.095 15.4611 30.5285 15.7596 30.8375 16.1693C31.1465 16.579 31.3145 17.0778 31.3162 17.591V17.7263H24.572ZM34.9424 16.6006C34.9284 16.9041 34.798 17.1904 34.5782 17.4001C34.3584 17.6098 34.0662 17.7266 33.7624 17.7263H32.498V17.591C32.4954 16.8211 32.2435 16.0729 31.7799 15.4583C31.3163 14.8438 30.666 14.396 29.9265 14.1822L28.3618 13.7355V12.7741L29.0922 12.4084C29.5407 12.1851 29.9245 11.8507 30.207 11.4369C30.4895 11.0231 30.6612 10.5439 30.7058 10.0449H31.3162C32.2935 10.0449 33.0888 9.24957 33.0888 8.27226C33.088 8.01517 33.0308 7.76139 32.9214 7.52875C32.812 7.29611 32.6529 7.09026 32.4554 6.92565C32.8696 6.26712 33.0892 5.50494 33.0888 4.72701H34.2706C34.9223 4.72701 35.4523 5.25702 35.4529 5.88098L34.9424 16.6006Z" fill="white"/>
<path d="M25.6345 9.63672L24.7807 10.4539C25.2505 10.9449 25.9099 11.2268 26.5894 11.2268C27.2689 11.2268 27.9283 10.9449 28.3987 10.4539L27.5448 9.63672C27.0479 10.1555 26.1309 10.1555 25.6345 9.63672ZM19.5213 25.7558C19.1198 24.9765 18.453 24.3662 17.6412 24.0352C16.7741 23.6805 15.8041 23.6719 14.9308 24.0109L14.7565 24.0783C14.7256 23.6938 14.5688 23.3301 14.3104 23.0437C14.594 22.7293 14.7713 22.3175 14.7713 21.8619C14.7713 21.4064 14.5934 20.9945 14.3104 20.6802C14.594 20.3658 14.7713 19.954 14.7713 19.4984C14.7713 19.2059 14.6933 18.9336 14.5669 18.6901C14.9794 18.5032 15.3296 18.2015 15.5755 17.8211C15.8213 17.4407 15.9526 16.9976 15.9536 16.5446C15.9536 15.8929 15.4236 15.3629 14.7719 15.3629H14.6171C14.6919 14.8401 14.646 14.3071 14.4829 13.8048L13.5151 10.9006C13.2274 10.0361 12.6107 9.31968 11.7987 8.90651C10.9866 8.49335 10.0445 8.41667 9.17629 8.69309L8.05777 9.04939C7.25898 9.30243 6.52578 9.72844 5.91036 10.2971C5.29494 10.8657 4.81242 11.563 4.49715 12.3394C4.18096 13.1188 4.03957 13.958 4.08295 14.798C4.10954 15.2943 4.15917 15.7907 4.21117 16.2841L2.7907 17.1355H0V26.5895H2.7907L4.48179 27.6041C5.30783 28.0998 6.25442 28.3622 7.21754 28.3622H8.39457C9.30656 29.8111 10.3486 31.174 11.5079 32.4339C12.0783 33.0519 12.7774 33.5372 13.5559 33.8555C14.132 34.0887 14.7423 34.2263 15.3628 34.2626V34.8618C15.3628 35.1874 15.0975 35.4527 14.7719 35.4527H5.90875C5.58318 35.4527 5.31788 35.1874 5.31788 34.8618C5.31788 34.5362 5.58318 34.2709 5.90875 34.2709H7.0905C8.06781 34.2709 8.86313 33.4756 8.86313 32.4983C8.86313 31.521 8.06781 30.7257 7.0905 30.7257H0V31.9074H7.0905C7.41608 31.9074 7.68138 32.1727 7.68138 32.4983C7.68138 32.8239 7.41608 33.0892 7.0905 33.0892H5.90875C4.93145 33.0892 4.13613 33.8845 4.13613 34.8618C4.13613 35.8391 4.93145 36.6344 5.90875 36.6344H14.7719C15.7492 36.6344 16.5445 35.8391 16.5445 34.8618V34.2118C17.1922 34.1182 17.819 33.914 18.3975 33.6079L19.4339 33.0561C20.1493 32.6746 20.7087 32.0548 21.0151 31.3041C21.204 30.8411 21.2904 30.3426 21.2682 29.843C21.2461 29.3434 21.116 28.8545 20.8869 28.41L19.5213 25.7558ZM13.5901 24.226C13.5901 24.5516 13.3248 24.8169 12.9993 24.8169H10.6358C10.3102 24.8169 10.0449 24.5516 10.0449 24.226C10.0449 23.9005 10.3102 23.6351 10.6358 23.6351H12.9993C13.3248 23.6351 13.5901 23.9005 13.5901 24.226ZM10.3474 18.9081H12.9993C13.3248 18.9081 13.5901 19.1734 13.5901 19.499C13.5901 19.8246 13.3248 20.0899 12.9993 20.0899H10.6358C10.3102 20.0899 10.0449 19.8246 10.0449 19.499V19.2562C10.1501 19.1451 10.2529 19.0305 10.3474 18.9081ZM13.5901 21.8625C13.5901 22.1881 13.3248 22.4534 12.9993 22.4534H10.6358C10.3102 22.4534 10.0449 22.1881 10.0449 21.8625C10.0449 21.5369 10.3102 21.2716 10.6358 21.2716H12.9993C13.3248 21.2716 13.5901 21.5369 13.5901 21.8625ZM11.0884 9.88134C11.3936 10.0055 11.6684 10.1944 11.8937 10.4349C12.119 10.6754 12.2896 10.9619 12.3936 11.2746L13.3615 14.1788C13.4891 14.5617 13.5115 14.9711 13.4306 15.3629H11.9936L9.88653 9.74071C10.2925 9.67873 10.7077 9.72731 11.0884 9.88134ZM5.59086 12.7849C5.84082 12.1691 6.22353 11.6159 6.71172 11.1649C7.19991 10.7139 7.78157 10.3761 8.41525 10.1756L8.74791 10.0698L10.7315 15.3629H7.21813C6.57826 15.3662 5.94428 15.4853 5.34683 15.7145C5.31788 15.3877 5.28006 15.0621 5.26234 14.7354C5.2282 14.069 5.34033 13.4033 5.59086 12.7849ZM1.18175 18.3173H2.3635V25.4078H1.18175V18.3173ZM7.21813 27.1804C6.46853 27.1805 5.73302 26.9766 5.09039 26.5907L3.54525 25.6642V18.0608L5.09039 17.1337C5.73318 16.7483 6.46862 16.5447 7.21813 16.5446H14.7719C14.7719 17.1964 14.2419 17.7264 13.5901 17.7264H9.72876L9.55327 17.9893C9.24426 18.4541 8.82501 18.8353 8.33291 19.0987C7.84082 19.3621 7.29119 19.4996 6.73303 19.499H4.7205L4.90663 20.2352C5.52256 22.6634 6.45843 24.9988 7.68965 27.1804H7.21813ZM14.002 32.7612C13.3847 32.5086 12.8303 32.1237 12.3777 31.6338C9.50807 28.5112 7.40941 24.7601 6.24969 20.6808H6.73243C7.51728 20.6792 8.28843 20.4751 8.97126 20.0881C9.04985 20.3097 9.1698 20.5094 9.32401 20.6808C9.04039 20.9951 8.86313 21.407 8.86313 21.8625C8.86313 22.3181 9.04098 22.7299 9.32401 23.0443C9.02871 23.3671 8.86439 23.7885 8.86313 24.226C8.86313 25.2033 9.65845 25.9986 10.6358 25.9986H12.9993C13.4217 25.9986 13.8052 25.8438 14.1101 25.5963L14.5007 25.445L18.0956 32.4297L17.8427 32.5645C17.2565 32.878 16.6082 33.0583 15.9443 33.0923C15.2804 33.1263 14.6171 33.0132 14.002 32.7612ZM19.9208 30.8586C19.7556 31.2583 19.4802 31.6028 19.1266 31.8519L15.6204 25.0397C16.1412 24.8969 16.6945 24.9286 17.1957 25.1301C17.7462 25.3547 18.1984 25.7685 18.4708 26.297L19.8369 28.9518C19.9877 29.2448 20.0733 29.5669 20.0878 29.896C20.1023 30.2252 20.0453 30.5536 19.9208 30.8586ZM22.4533 22.4534C21.476 22.4534 20.6806 23.2487 20.6806 24.226C20.6806 25.2033 21.476 25.9986 22.4533 25.9986C23.4306 25.9986 24.2259 25.2033 24.2259 24.226C24.2259 23.2487 23.4306 22.4534 22.4533 22.4534ZM22.4533 24.8169C22.1277 24.8169 21.8624 24.5516 21.8624 24.226C21.8624 23.9005 22.1277 23.6351 22.4533 23.6351C22.7788 23.6351 23.0441 23.9005 23.0441 24.226C23.0441 24.5516 22.7788 24.8169 22.4533 24.8169ZM27.1803 22.4534C26.203 22.4534 25.4076 23.2487 25.4076 24.226C25.4076 25.2033 26.203 25.9986 27.1803 25.9986C28.1576 25.9986 28.9529 25.2033 28.9529 24.226C28.9529 23.2487 28.1576 22.4534 27.1803 22.4534ZM27.1803 24.8169C26.8547 24.8169 26.5894 24.5516 26.5894 24.226C26.5894 23.9005 26.8547 23.6351 27.1803 23.6351C27.5058 23.6351 27.7711 23.9005 27.7711 24.226C27.7711 24.5516 27.5058 24.8169 27.1803 24.8169ZM31.9073 22.4534C30.93 22.4534 30.1346 23.2487 30.1346 24.226C30.1346 25.2033 30.93 25.9986 31.9073 25.9986C32.8846 25.9986 33.6799 25.2033 33.6799 24.226C33.6799 23.2487 32.8846 22.4534 31.9073 22.4534ZM31.9073 24.8169C31.5817 24.8169 31.3164 24.5516 31.3164 24.226C31.3164 23.9005 31.5817 23.6351 31.9073 23.6351C32.2328 23.6351 32.4981 23.9005 32.4981 24.226C32.4981 24.5516 32.2328 24.8169 31.9073 24.8169Z" fill="white"/>
</svg>
