<svg width="41" height="35" viewBox="0 0 41 35" fill="none" xmlns="http://www.w3.org/2000/svg">
<path d="M36.8371 30.2741H32.1323C31.912 30.2741 31.7008 30.1866 31.5451 30.0309C31.3894 29.8752 31.3019 29.664 31.3019 29.4437C31.3019 29.2235 31.3894 29.0123 31.5451 28.8566C31.7008 28.7009 31.912 28.6134 32.1323 28.6134H36.8371C37.2533 28.6129 37.6524 28.4473 37.9467 28.153C38.2411 27.8587 38.4066 27.4596 38.4071 27.0434V12.6407C38.4066 12.2244 38.2411 11.8253 37.9467 11.531C37.6524 11.2367 37.2533 11.0711 36.8371 11.0706H3.23089C2.81463 11.0711 2.41554 11.2366 2.12119 11.531C1.82684 11.8253 1.66126 12.2244 1.66077 12.6407V27.0434C1.66126 27.4596 1.82684 27.8587 2.12119 28.153C2.41554 28.4474 2.81463 28.6129 3.23089 28.6134H7.93569C8.15592 28.6134 8.36712 28.7009 8.52284 28.8566C8.67856 29.0123 8.76605 29.2235 8.76605 29.4437C8.76605 29.664 8.67856 29.8752 8.52284 30.0309C8.36712 30.1866 8.15592 30.2741 7.93569 30.2741H3.23089C2.37433 30.2731 1.55313 29.9324 0.947447 29.3268C0.341761 28.7211 0.00105002 27.8999 6.10352e-05 27.0434V12.6407C0.00105002 11.7841 0.341761 10.9629 0.947447 10.3572C1.55313 9.75157 2.37433 9.41088 3.23089 9.40991H36.8371C37.6936 9.41086 38.5148 9.75154 39.1205 10.3572C39.7262 10.9629 40.0669 11.7841 40.0679 12.6407V27.0434C40.0669 27.8999 39.7262 28.7211 39.1205 29.3268C38.5148 29.9325 37.6936 30.2732 36.8371 30.2741Z" fill="white"/>
<path d="M7.9357 11.0705C7.71548 11.0705 7.50427 10.983 7.34855 10.8273C7.19283 10.6715 7.10535 10.4603 7.10535 10.2401V3.23083C7.10631 2.37424 7.44703 1.55302 8.05273 0.947328C8.65844 0.341636 9.47967 0.000945037 10.3363 0H26.8512C27.0714 0 27.2826 0.0874837 27.4384 0.243206C27.5941 0.398928 27.6816 0.610132 27.6816 0.830356C27.6816 1.05058 27.5941 1.26178 27.4384 1.41751C27.2826 1.57323 27.0714 1.66071 26.8512 1.66071H10.3363C9.91998 1.66117 9.52088 1.82675 9.22653 2.1211C8.93217 2.41545 8.7666 2.81455 8.76614 3.23083V10.2401C8.76614 10.4603 8.67866 10.6715 8.52294 10.8273C8.36721 10.983 8.15593 11.0705 7.9357 11.0705ZM32.1323 11.0705C31.9121 11.0705 31.7008 10.983 31.5451 10.8273C31.3894 10.6715 31.3019 10.4603 31.3019 10.2401V6.11134C31.3019 5.89111 31.3894 5.67991 31.5451 5.52419C31.7008 5.36847 31.9121 5.28098 32.1323 5.28098C32.3525 5.28098 32.5637 5.36847 32.7194 5.52419C32.8752 5.67991 32.9626 5.89111 32.9626 6.11134V10.2401C32.9626 10.4603 32.8752 10.6715 32.7194 10.8273C32.5637 10.983 32.3525 11.0705 32.1323 11.0705ZM29.7318 34.2107H10.3363C9.4797 34.2097 8.65848 33.869 8.05279 33.2634C7.4471 32.6577 7.1064 31.8365 7.10543 30.9799V21.7622C7.10543 21.542 7.19291 21.3308 7.34864 21.1751C7.50436 21.0194 7.71556 20.9319 7.93579 20.9319C8.15601 20.9319 8.36721 21.0194 8.52294 21.1751C8.67866 21.3308 8.76614 21.542 8.76614 21.7622V30.9799C8.76663 31.3962 8.93221 31.7953 9.22656 32.0896C9.52091 32.3839 9.92 32.5495 10.3363 32.55H29.7318C30.1481 32.5495 30.5471 32.3839 30.8415 32.0896C31.1358 31.7952 31.3014 31.3962 31.3018 30.9799V21.7622C31.3018 21.542 31.3893 21.3308 31.545 21.1751C31.7008 21.0194 31.912 20.9319 32.1322 20.9319C32.3524 20.9319 32.5636 21.0194 32.7193 21.1751C32.8751 21.3308 32.9626 21.542 32.9626 21.7622V30.9799C32.9616 31.8365 32.6209 32.6577 32.0152 33.2633C31.4095 33.869 30.5884 34.2097 29.7318 34.2107Z" fill="white"/>
<path d="M32.1322 6.94169H28.7715C28.0422 6.94088 27.3431 6.65081 26.8274 6.13513C26.3117 5.61945 26.0216 4.92026 26.0208 4.19097V0.830356C26.0208 0.610132 26.1083 0.398928 26.264 0.243206C26.4197 0.0874837 26.6309 0 26.8512 0C27.0714 0 27.2826 0.0874837 27.4383 0.243206C27.594 0.398928 27.6815 0.610132 27.6815 0.830356V4.19097C27.6819 4.47996 27.7968 4.75702 28.0011 4.96136C28.2055 5.16571 28.4825 5.28065 28.7715 5.28098H32.1321C32.3523 5.28098 32.5635 5.36847 32.7192 5.52419C32.8749 5.67991 32.9624 5.89111 32.9624 6.11134C32.9624 6.33156 32.8749 6.54277 32.7192 6.69849C32.5635 6.85421 32.3523 6.94169 32.1321 6.94169H32.1322Z" fill="white"/>
<path d="M32.1321 6.94172C32.023 6.94185 31.915 6.92043 31.8142 6.87868C31.7134 6.83693 31.6219 6.77567 31.5449 6.69842L26.2639 1.41752C26.1082 1.26179 26.0207 1.05058 26.0207 0.830348C26.0207 0.610118 26.1082 0.398912 26.264 0.243191C26.4197 0.0874709 26.6309 -7.78558e-06 26.8511 5.1971e-10C27.0714 7.78662e-06 27.2826 0.0875014 27.4383 0.243233L32.7192 5.52413C32.8353 5.64025 32.9144 5.7882 32.9465 5.94928C32.9785 6.11036 32.9621 6.27733 32.8993 6.42907C32.8364 6.58081 32.73 6.7105 32.5935 6.80176C32.4569 6.89301 32.2964 6.94171 32.1321 6.94172ZM34.3405 22.5926H5.72721C5.50698 22.5926 5.29578 22.5051 5.14006 22.3494C4.98433 22.1937 4.89685 21.9825 4.89685 21.7622C4.89685 21.542 4.98433 21.3308 5.14006 21.1751C5.29578 21.0194 5.50698 20.9319 5.72721 20.9319H34.3405C34.5607 20.9319 34.7719 21.0194 34.9276 21.1751C35.0833 21.3308 35.1708 21.542 35.1708 21.7622C35.1708 21.9825 35.0833 22.1937 34.9276 22.3494C34.7719 22.5051 34.5607 22.5926 34.3405 22.5926ZM28.0199 26.5772H12.0478C11.8276 26.5772 11.6164 26.4897 11.4606 26.334C11.3049 26.1783 11.2174 25.9671 11.2174 25.7469C11.2174 25.5267 11.3049 25.3154 11.4606 25.1597C11.6164 25.004 11.8276 24.9165 12.0478 24.9165H28.0199C28.2401 24.9165 28.4513 25.004 28.607 25.1597C28.7627 25.3154 28.8502 25.5267 28.8502 25.7469C28.8502 25.9671 28.7627 26.1783 28.607 26.334C28.4513 26.4897 28.2401 26.5772 28.0199 26.5772ZM28.0199 30.226H12.0478C11.8276 30.226 11.6164 30.1385 11.4606 29.9828C11.3049 29.8271 11.2174 29.6159 11.2174 29.3956C11.2174 29.1754 11.3049 28.9642 11.4606 28.8085C11.6164 28.6528 11.8276 28.5653 12.0478 28.5653H28.0199C28.2401 28.5653 28.4513 28.6528 28.607 28.8085C28.7627 28.9642 28.8502 29.1754 28.8502 29.3956C28.8502 29.6159 28.7627 29.8271 28.607 29.9828C28.4513 30.1385 28.2401 30.226 28.0199 30.226ZM33.8604 17.9837C33.3923 17.9837 32.9347 17.845 32.5455 17.5849C32.1563 17.3249 31.8529 16.9553 31.6738 16.5228C31.4946 16.0904 31.4477 15.6145 31.539 15.1554C31.6303 14.6963 31.8557 14.2746 32.1867 13.9436C32.5177 13.6126 32.9394 13.3871 33.3985 13.2958C33.8576 13.2045 34.3335 13.2514 34.766 13.4305C35.1984 13.6096 35.5681 13.913 35.8281 14.3022C36.0882 14.6914 36.227 15.149 36.2269 15.6171C36.2262 16.2445 35.9767 16.8461 35.533 17.2897C35.0894 17.7334 34.4878 17.983 33.8604 17.9837ZM33.8604 14.9111C33.7208 14.9111 33.5843 14.9525 33.4682 15.03C33.352 15.1076 33.2615 15.2178 33.2081 15.3468C33.1546 15.4758 33.1406 15.6178 33.1678 15.7547C33.1951 15.8917 33.2623 16.0175 33.361 16.1162C33.4597 16.215 33.5855 16.2822 33.7225 16.3095C33.8594 16.3368 34.0014 16.3228 34.1304 16.2694C34.2594 16.2159 34.3697 16.1254 34.4472 16.0093C34.5248 15.8932 34.5662 15.7567 34.5662 15.6171C34.566 15.43 34.4916 15.2505 34.3593 15.1182C34.227 14.9858 34.0476 14.9114 33.8604 14.9111Z" fill="white"/>
</svg>
