<svg width="27" height="24" viewBox="0 0 27 24" fill="none" xmlns="http://www.w3.org/2000/svg">
<path d="M10.0806 23.4161C15.648 23.4161 20.1612 18.9029 20.1612 13.3355C20.1612 7.76813 15.648 3.25488 10.0806 3.25488C4.51325 3.25488 0 7.76813 0 13.3355C0 18.9029 4.51325 23.4161 10.0806 23.4161Z" fill="#FF9500" fill-opacity="0.2"/>
<path d="M10.1952 21.1273L10.0673 20.9094C8.11421 17.5817 2.92417 10.5199 2.87174 10.449L2.79688 10.3473L4.56509 8.59982L10.1623 12.5082C13.6865 7.93509 16.9743 4.79406 19.1189 2.95982C21.4649 0.953352 22.992 0.0296389 23.0074 0.0207873L23.0422 0H26.0416L25.7551 0.255156C18.3865 6.81829 10.3998 20.7676 10.3203 20.9077L10.1952 21.1273Z" fill="#FF9500"/>
</svg>
