<svg width="15" height="17" viewBox="0 0 15 17" fill="none" xmlns="http://www.w3.org/2000/svg">
<path d="M10.3231 4.37995C10.5222 4.18087 10.7102 4.18087 10.8872 4.37995L14.7362 8.22893C14.9353 8.40589 14.9353 8.58285 14.7362 8.75982L10.8872 12.6088C10.7102 12.8079 10.5222 12.8079 10.3231 12.6088L10.0909 12.3765C9.89179 12.1996 9.89179 12.0115 10.0909 11.8125L12.8781 9.05845H0.402076C0.136629 9.05845 0.00390625 8.92572 0.00390625 8.66028V8.32847C0.00390625 8.06302 0.136629 7.9303 0.402076 7.9303H12.8781L10.0909 5.17629C9.89179 4.97721 9.89179 4.78918 10.0909 4.61222L10.3231 4.37995Z" fill="black"/>
</svg>
