<svg width="130" height="61" viewBox="0 0 130 61" fill="none" xmlns="http://www.w3.org/2000/svg">
<mask id="mask0_90_2337" style="mask-type:luminance" maskUnits="userSpaceOnUse" x="0" y="0" width="130" height="61">
<path d="M129.83 0H0V60.46H129.83V0Z" fill="white"/>
</mask>
<g mask="url(#mask0_90_2337)">
<path d="M129.046 9.14512C129.264 9.23211 129.438 9.4496 129.438 9.71057C129.569 11.8419 130.091 21.585 130.005 23.6294C129.874 27.8921 128.653 32.1112 126.388 35.8954L109.659 60.5578V30.2409C111.314 30.0234 112.578 28.6315 112.578 26.9351C112.578 25.1083 111.096 23.586 109.223 23.586C107.349 23.586 105.868 25.0648 105.868 26.9351C105.868 28.6315 107.132 30.0234 108.787 30.2409V60.5578L92.0575 35.8954C89.792 32.1112 88.572 27.8921 88.4414 23.6294C88.3543 21.5416 88.877 11.8419 89.0078 9.71057C89.0078 9.4496 89.182 9.23211 89.3999 9.14512C93.408 7.70973 103.821 3.4036 108.874 0.097867C109.092 -0.0326223 109.354 -0.0326223 109.571 0.097867C114.582 3.4036 125.038 7.70973 129.046 9.14512Z" fill="white"/>
<path fill-rule="evenodd" clip-rule="evenodd" d="M58.8163 39.0704C58.8163 38.8529 58.5985 38.6354 58.3371 38.6354V38.6789H55.418C55.2003 38.6789 54.9824 38.8529 54.9824 39.1139V40.0273C54.2418 39.0704 52.8476 38.4614 51.1921 38.4614C47.1839 38.4614 44.7441 41.2452 44.7441 45.5514C44.7441 49.814 47.1403 52.6413 51.2356 52.6413C52.8476 52.6413 54.3289 52.0323 55.026 51.0319V52.8153C55.026 54.0767 54.1547 54.9901 53.0219 54.9901H47.1403C46.8789 54.9901 46.6611 55.164 46.6611 55.4251V57.4693C46.6611 57.7304 46.8789 57.9478 47.1403 57.9478H53.6318C56.7251 57.9478 58.8163 56.0775 58.8163 53.2068V39.0704ZM51.802 41.6801C53.8497 41.6801 55.2003 43.246 55.2003 45.5514C55.2003 47.8567 53.8933 49.3791 51.802 49.3791C49.7979 49.3791 48.4474 47.8567 48.4474 45.5514C48.4474 43.2026 49.7979 41.6801 51.802 41.6801Z" fill="white"/>
<path d="M62.2572 38.6356H65.1762C65.4376 38.6356 65.6555 38.8531 65.6555 39.1141V40.5495C66.4396 39.2011 67.9644 38.4182 69.8379 38.4182C72.9747 38.4182 74.9788 40.68 74.9788 43.8117V51.9455C74.9788 52.2065 74.7609 52.424 74.4995 52.424H71.5806C71.3191 52.424 71.1012 52.2065 71.1012 51.9455V44.6817C71.1012 43.0288 70.0556 41.8109 68.4437 41.8109C66.7882 41.8109 65.6118 43.1158 65.6118 44.8556V51.9455C65.6118 52.2065 65.394 52.424 65.1326 52.424H62.2136C61.9523 52.424 61.7344 52.2065 61.7344 51.9455V39.0707C61.8215 38.8531 61.9958 38.6356 62.2572 38.6356Z" fill="white"/>
<path d="M41.9561 38.6357H39.0372C38.7758 38.6357 38.6016 38.8533 38.6016 39.1142V51.9892C38.6016 52.2502 38.7758 52.4676 39.0372 52.4676H41.9561C42.174 52.4676 42.3919 52.2502 42.3919 51.9892V39.1142C42.3919 38.8533 42.2176 38.6357 41.9561 38.6357Z" fill="white"/>
<path d="M42.5211 33.764V36.8523C42.5211 37.1133 42.3032 37.3308 42.0419 37.3308H38.9051C38.6437 37.3308 38.4258 37.1133 38.4258 36.8523V33.764C38.4258 33.5031 38.6437 33.3291 38.9051 33.3291H42.0419C42.3032 33.2855 42.5211 33.5031 42.5211 33.764Z" fill="white"/>
<path d="M22.3927 45.8998C22.1312 45.8998 21.957 46.1172 21.957 46.4217C22.0441 47.4221 22.4362 48.64 23.0462 49.4665C23.6997 50.4669 24.571 51.2499 25.6601 51.8153C26.7494 52.3807 28.0128 52.6418 29.4505 52.6418C30.8447 52.6418 32.1081 52.4242 33.1972 51.9457C34.2865 51.5108 35.1578 50.8148 35.7677 49.9449C36.3777 49.075 36.6827 48.0311 36.6827 46.8566C36.6827 45.5083 36.3342 44.4209 35.7242 43.6379C35.1142 42.8551 34.3301 42.2896 33.5022 41.9416C32.718 41.5936 31.6289 41.2892 30.3219 40.9847C29.3634 40.7672 28.6663 40.5497 28.1435 40.3757C27.6642 40.2017 27.2286 39.9407 26.9236 39.6362C26.6186 39.3318 26.488 38.9839 26.488 38.5054C26.488 37.9399 26.7057 37.505 27.185 37.1569C27.6642 36.809 28.3178 36.635 29.1891 36.635C30.0604 36.635 30.801 36.896 31.3675 37.3309C31.8031 37.679 32.1081 38.1575 32.2389 38.6794C32.2824 38.8969 32.4566 39.0273 32.6745 39.0273H35.7242C35.9856 39.0273 36.2034 38.7664 36.1598 38.5054L36.153 38.4562C36.1024 38.0895 35.9483 36.9728 35.2013 35.8956C34.5915 35.0256 33.7636 34.2862 32.718 33.8078C31.6724 33.3293 30.4962 33.0684 29.1456 33.0684C27.8821 33.0684 26.7057 33.3293 25.7037 33.7642C24.7018 34.1992 23.8739 34.8516 23.3075 35.6781C22.7412 36.548 22.4362 37.505 22.4362 38.5488C22.4362 39.8537 22.7412 40.9411 23.3512 41.7241C23.961 42.507 24.7018 43.116 25.5295 43.464C26.3572 43.8119 27.4028 44.1598 28.7098 44.4644C29.6248 44.6819 30.3219 44.8993 30.8447 45.0734C31.3239 45.2473 31.716 45.5083 32.021 45.8128C32.326 46.0738 32.4566 46.4217 32.4566 46.9002C32.4566 47.6396 32.1952 48.1616 31.6724 48.5095C31.106 48.901 30.3219 49.075 29.3634 49.075C28.3178 49.075 27.49 48.814 26.8801 48.2485C26.3572 47.7701 26.0087 47.0306 25.878 46.2477C25.878 46.0738 25.6601 45.8998 25.4424 45.8998H22.3927Z" fill="white"/>
<path d="M15.1177 33.2856H12.2424C11.9809 33.2856 11.8067 33.5031 11.8067 33.7206V45.5951L4.40028 33.4595C4.31314 33.3291 4.18243 33.2421 4.00817 33.2421H0.435671C0.174268 33.2421 0 33.4595 0 33.6771V51.9021C0 52.1631 0.217836 52.3805 0.435671 52.3805H3.3111C3.57251 52.3805 3.74677 52.1631 3.74677 51.9021V39.6796L11.3274 52.2065C11.4146 52.337 11.5453 52.424 11.7195 52.424H15.1177C15.3792 52.424 15.5535 52.2065 15.5535 51.9455V33.7206C15.5971 33.5031 15.3792 33.2856 15.1177 33.2856Z" fill="white"/>
<path d="M26.7948 13.5381C22.5252 13.5381 19.6934 16.6263 19.6934 20.628C19.6934 24.6297 22.5687 27.7179 26.7948 27.7179C30.1931 27.7179 32.8942 25.7171 33.5476 22.9333C33.6348 22.6288 33.417 22.3678 33.112 22.3678H30.1058C29.8881 22.3678 29.7137 22.4984 29.6702 22.6723C29.2781 23.7597 28.2325 24.4556 26.969 24.4556C24.8778 24.4556 23.6579 22.8897 23.6579 20.628C23.6579 18.3661 24.8778 16.7568 26.9255 16.7568C28.189 16.7568 29.2781 17.5397 29.6266 18.5836C29.6702 18.7576 29.8445 18.8881 30.0623 18.8881H33.0249C33.2863 18.8881 33.5041 18.6272 33.4605 18.3661C32.9378 15.4954 30.1931 13.5381 26.7948 13.5381Z" fill="white"/>
<path d="M36.2918 8.31885H39.1672C39.4286 8.31885 39.6465 8.53632 39.6465 8.75381V15.6263C40.4307 14.2779 41.9555 13.4949 43.8725 13.4949C46.9657 13.4949 48.9698 15.7567 48.9698 18.8885V27.0658C48.9698 27.3268 48.7519 27.5443 48.4906 27.5443H45.6151C45.3537 27.5443 45.1795 27.3268 45.1795 27.0658V19.8019C45.1795 18.1491 44.0903 16.9312 42.4783 16.9312C40.8228 16.9312 39.6465 18.2361 39.6465 19.9759V27.0658C39.6465 27.3268 39.4286 27.5443 39.1672 27.5443H36.2918C36.0304 27.5443 35.8125 27.3268 35.8125 27.0658V8.79731C35.8125 8.53632 36.0304 8.31885 36.2918 8.31885Z" fill="white"/>
<path fill-rule="evenodd" clip-rule="evenodd" d="M63.3902 27.0656V18.6708C63.3902 15.5391 60.8633 13.5383 57.3779 13.5383C53.849 13.5383 51.627 15.4521 51.235 17.9749C51.1914 18.2359 51.4093 18.4969 51.6706 18.4969H54.154C54.3718 18.4969 54.5461 18.3663 54.5896 18.1489C54.8075 17.1485 55.6352 16.3221 57.1165 16.3221C58.685 16.3221 59.5999 17.1485 59.5999 18.2793C59.5999 18.8448 59.2514 19.2799 58.5543 19.2799H56.2452C53.1955 19.2799 51.1914 20.9327 51.1914 23.6294C51.1914 25.9783 53.0212 27.7616 55.7223 27.7616C57.5958 27.7616 59.1206 26.9352 59.5999 25.6303V27.0656C59.5999 27.2832 59.7741 27.5006 60.0355 27.5006H62.9109C63.1723 27.5006 63.3902 27.3266 63.3902 27.0656ZM59.4691 21.6721C59.5563 21.6721 59.6434 21.7591 59.6434 21.8461C59.6434 23.6294 58.5543 24.9779 56.7244 24.9779C55.6788 24.9779 54.8946 24.3688 54.8946 23.4554C54.8946 22.368 55.7223 21.6721 56.8552 21.6721H59.4691Z" fill="white"/>
<path d="M20.9563 8.31885H6.2306C5.96919 8.31885 5.79492 8.53632 5.79492 8.75381V11.6246C5.79492 11.8855 6.01275 12.103 6.2306 12.103H11.7636V27.0658C11.7636 27.3268 11.9815 27.5443 12.1992 27.5443H15.0747C15.3362 27.5443 15.5539 27.3268 15.5539 27.0658V12.103H20.9127C21.1741 12.103 21.3484 11.8855 21.3484 11.6246V8.79731C21.4355 8.53632 21.2177 8.31885 20.9563 8.31885Z" fill="white"/>
<path d="M71.2761 13.7557V10.1455C71.2761 9.88452 71.0582 9.66704 70.7968 9.71053H67.9214C67.7035 9.71053 67.4856 9.88452 67.4856 10.1455V13.7557H65.3073C65.0459 13.7557 64.8281 13.9297 64.8281 14.1906V16.4525C64.8281 16.7135 65.0459 16.931 65.3073 16.931H67.4856V22.4985C67.4856 25.7172 69.5333 27.5006 72.7138 27.5006H74.5435C74.805 27.5006 75.0228 27.3266 75.0228 27.0656V24.8038C75.0228 24.5428 74.805 24.3253 74.5435 24.3253H73.2365C71.9731 24.3253 71.2761 23.7164 71.2761 22.368V16.931H74.5C74.7614 16.931 74.9792 16.7135 74.9792 16.4525V14.1906C74.9792 13.9732 74.7614 13.7557 74.5 13.7557H71.2761Z" fill="white"/>
</g>
</svg>
