<svg width="150" height="150" viewBox="0 0 150 150" fill="none" xmlns="http://www.w3.org/2000/svg">
<circle cx="74.7207" cy="74.7207" r="74.7207" fill="#FF9500"/>
<mask id="mask0_90_2684" style="mask-type:luminance" maskUnits="userSpaceOnUse" x="46" y="34" width="57" height="81">
<path d="M102.974 34.5596H46.4668V114.882H102.974V34.5596Z" fill="white"/>
</mask>
<g mask="url(#mask0_90_2684)">
<path d="M101.932 46.7091C102.221 46.8246 102.453 47.1136 102.453 47.4603C102.627 50.2918 103.32 63.2358 103.205 65.9517C103.031 71.6148 101.41 77.22 98.401 82.2473L76.175 115.012V74.7353C78.3744 74.4463 80.053 72.5971 80.053 70.3434C80.053 67.9165 78.085 65.894 75.5962 65.894C73.1073 65.894 71.1395 67.8588 71.1395 70.3434C71.1395 72.5971 72.818 74.4463 75.0175 74.7353V115.012L52.7916 82.2473C49.7818 77.22 48.1611 71.6148 47.9875 65.9517C47.8718 63.1781 48.5663 50.2918 48.74 47.4603C48.74 47.1136 48.9715 46.8246 49.2609 46.7091C54.5858 44.8021 68.4191 39.0813 75.1332 34.6896C75.4225 34.5162 75.7698 34.5162 76.0593 34.6896C82.7153 39.0813 96.6072 44.8021 101.932 46.7091Z" fill="white"/>
</g>
</svg>
