<svg width="41" height="41" viewBox="0 0 41 41" fill="none" xmlns="http://www.w3.org/2000/svg">
<circle cx="20.5" cy="20.5" r="20.5" fill="#FF9500"/>
<path d="M15.2867 9.14286C15.2867 8.51167 14.775 8 14.1438 8C13.5127 8 13.001 8.51167 13.001 9.14286V10.2857C13.001 10.9169 13.5127 11.4286 14.1438 11.4286C14.775 11.4286 15.2867 10.9169 15.2867 10.2857V9.14286Z" fill="white"/>
<path d="M27.858 9.14286C27.858 8.51167 27.3463 8 26.7151 8C26.0839 8 25.5723 8.51167 25.5723 9.14286V10.2857C25.5723 10.9169 26.0839 11.4286 26.7151 11.4286C27.3463 11.4286 27.858 10.9169 27.858 10.2857V9.14286Z" fill="white"/>
<path d="M9 16.5715V29.7144C9 30.3206 9.24082 30.9019 9.66947 31.3306C10.0981 31.7593 10.6795 32.0001 11.2857 32.0001H29.5714C30.1776 32.0001 30.759 31.7593 31.1877 31.3306C31.6163 30.9019 31.8571 30.3206 31.8571 29.7144V16.5715H9ZM15.8571 28.0001C15.8571 28.3032 15.7367 28.5939 15.5224 28.8082C15.3081 29.0225 15.0174 29.1429 14.7143 29.1429H13.5714C13.2683 29.1429 12.9776 29.0225 12.7633 28.8082C12.549 28.5939 12.4286 28.3032 12.4286 28.0001V26.8572C12.4286 26.5541 12.549 26.2634 12.7633 26.0491C12.9776 25.8348 13.2683 25.7144 13.5714 25.7144H14.7143C15.0174 25.7144 15.3081 25.8348 15.5224 26.0491C15.7367 26.2634 15.8571 26.5541 15.8571 26.8572V28.0001ZM15.8571 21.7144C15.8571 22.0175 15.7367 22.3082 15.5224 22.5225C15.3081 22.7368 15.0174 22.8572 14.7143 22.8572H13.5714C13.2683 22.8572 12.9776 22.7368 12.7633 22.5225C12.549 22.3082 12.4286 22.0175 12.4286 21.7144V20.5715C12.4286 20.2684 12.549 19.9777 12.7633 19.7634C12.9776 19.549 13.2683 19.4286 13.5714 19.4286H14.7143C15.0174 19.4286 15.3081 19.549 15.5224 19.7634C15.7367 19.9777 15.8571 20.2684 15.8571 20.5715V21.7144ZM22.1429 28.0001C22.1429 28.3032 22.0224 28.5939 21.8081 28.8082C21.5938 29.0225 21.3031 29.1429 21 29.1429H19.8571C19.554 29.1429 19.2633 29.0225 19.049 28.8082C18.8347 28.5939 18.7143 28.3032 18.7143 28.0001V26.8572C18.7143 26.5541 18.8347 26.2634 19.049 26.0491C19.2633 25.8348 19.554 25.7144 19.8571 25.7144H21C21.3031 25.7144 21.5938 25.8348 21.8081 26.0491C22.0224 26.2634 22.1429 26.5541 22.1429 26.8572V28.0001ZM22.1429 21.7144C22.1429 22.0175 22.0224 22.3082 21.8081 22.5225C21.5938 22.7368 21.3031 22.8572 21 22.8572H19.8571C19.554 22.8572 19.2633 22.7368 19.049 22.5225C18.8347 22.3082 18.7143 22.0175 18.7143 21.7144V20.5715C18.7143 20.2684 18.8347 19.9777 19.049 19.7634C19.2633 19.549 19.554 19.4286 19.8571 19.4286H21C21.3031 19.4286 21.5938 19.549 21.8081 19.7634C22.0224 19.9777 22.1429 20.2684 22.1429 20.5715V21.7144ZM28.4286 28.0001C28.4286 28.3032 28.3082 28.5939 28.0938 28.8082C27.8795 29.0225 27.5888 29.1429 27.2857 29.1429H26.1429C25.8398 29.1429 25.5491 29.0225 25.3347 28.8082C25.1204 28.5939 25 28.3032 25 28.0001V26.8572C25 26.5541 25.1204 26.2634 25.3347 26.0491C25.5491 25.8348 25.8398 25.7144 26.1429 25.7144H27.2857C27.5888 25.7144 27.8795 25.8348 28.0938 26.0491C28.3082 26.2634 28.4286 26.5541 28.4286 26.8572V28.0001ZM28.4286 21.7144C28.4286 22.0175 28.3082 22.3082 28.0938 22.5225C27.8795 22.7368 27.5888 22.8572 27.2857 22.8572H26.1429C25.8398 22.8572 25.5491 22.7368 25.3347 22.5225C25.1204 22.3082 25 22.0175 25 21.7144V20.5715C25 20.2684 25.1204 19.9777 25.3347 19.7634C25.5491 19.549 25.8398 19.4286 26.1429 19.4286H27.2857C27.5888 19.4286 27.8795 19.549 28.0938 19.7634C28.3082 19.9777 28.4286 20.2684 28.4286 20.5715V21.7144ZM31.8571 15.4286V12.0001C31.8571 11.3939 31.6163 10.8125 31.1877 10.3838C30.759 9.95517 30.1776 9.71436 29.5714 9.71436H29V10.2858C29 11.5464 27.9749 12.5715 26.7143 12.5715C25.4537 12.5715 24.4286 11.5464 24.4286 10.2858V9.71436H16.4286V10.2858C16.4286 11.5464 15.4034 12.5715 14.1429 12.5715C12.8823 12.5715 11.8571 11.5464 11.8571 10.2858V9.71436H11.2857C10.6795 9.71436 10.0981 9.95517 9.66947 10.3838C9.24082 10.8125 9 11.3939 9 12.0001V15.4286H31.8571Z" fill="white"/>
</svg>
