<svg width="41" height="41" viewBox="0 0 41 41" fill="none" xmlns="http://www.w3.org/2000/svg">
<circle cx="20.5" cy="20.5" r="20.5" fill="#FF9500"/>
<path d="M16.0128 21.7821C16.0128 17.1923 19.7564 13.4487 24.3462 13.4487C25.6026 13.4487 26.7949 13.7308 27.8718 14.2436V11.5256C27.8718 9.57692 26.2949 8 24.3462 8H11.5256C9.57692 8 8 9.57692 8 11.5256V29.4744C8 31.4231 9.57692 33 11.5256 33H24.3462C26.2949 33 27.8718 31.4231 27.8718 29.4744V29.3205C26.7949 29.8333 25.6026 30.1154 24.3462 30.1154C19.7564 30.1154 16.0128 26.3718 16.0128 21.7821ZM12.8077 11.8462H19.2179C19.7436 11.8462 20.1795 12.2821 20.1795 12.8077C20.1795 13.3333 19.7436 13.7692 19.2179 13.7692H12.8077C12.2821 13.7692 11.8462 13.3333 11.8462 12.8077C11.8462 12.2821 12.2821 11.8462 12.8077 11.8462ZM14.0897 21.4615H12.8077C12.2821 21.4615 11.8462 21.0256 11.8462 20.5C11.8462 19.9744 12.2821 19.5385 12.8077 19.5385H14.0897C14.6154 19.5385 15.0513 19.9744 15.0513 20.5C15.0513 21.0256 14.6154 21.4615 14.0897 21.4615ZM12.8077 17.6154C12.2821 17.6154 11.8462 17.1795 11.8462 16.6538C11.8462 16.1282 12.2821 15.6923 12.8077 15.6923H15.3718C15.8974 15.6923 16.3333 16.1282 16.3333 16.6538C16.3333 17.1795 15.8974 17.6154 15.3718 17.6154H12.8077ZM32.718 27.5128L29.9821 24.7769C30.4603 23.8795 30.7564 22.8705 30.7564 21.7833C30.7564 20.5155 30.3805 19.2761 29.6761 18.222C28.9717 17.1678 27.9706 16.3462 26.7993 15.861C25.6279 15.3759 24.339 15.2489 23.0956 15.4962C21.8521 15.7436 20.7099 16.3541 19.8134 17.2506C18.9169 18.1471 18.3064 19.2893 18.0591 20.5328C17.8117 21.7762 17.9387 23.0651 18.4238 24.2364C18.909 25.4078 19.7306 26.4089 20.7848 27.1133C21.839 27.8176 23.0783 28.1936 24.3462 28.1936C26.0962 28.1936 27.6795 27.4885 28.8359 26.3513L31.3577 28.8731C31.4468 28.9625 31.5527 29.0335 31.6693 29.082C31.7859 29.1304 31.9109 29.1553 32.0372 29.1553C32.1634 29.1553 32.2885 29.1304 32.4051 29.082C32.5217 29.0335 32.6276 28.9625 32.7167 28.8731C32.806 28.7838 32.8769 28.6778 32.9253 28.5611C32.9736 28.4444 32.9985 28.3193 32.9985 28.1929C32.9985 28.0666 32.9736 27.9415 32.9253 27.8248C32.8769 27.7081 32.806 27.6021 32.7167 27.5128H32.718ZM27.4885 21.2679L24.0692 23.8436C23.9021 23.9698 23.6983 24.0379 23.4889 24.0377C23.2795 24.0374 23.0758 23.9688 22.909 23.8423L21.2 22.5474C21.0993 22.4713 21.0146 22.376 20.9508 22.2671C20.8869 22.1582 20.8451 22.0377 20.8278 21.9127C20.8105 21.7876 20.818 21.6604 20.8498 21.5382C20.8817 21.416 20.9373 21.3013 21.0135 21.2006C21.0896 21.1 21.1849 21.0153 21.2938 20.9514C21.4027 20.8875 21.5232 20.8458 21.6482 20.8284C21.7733 20.8111 21.9005 20.8186 22.0227 20.8505C22.1449 20.8823 22.2596 20.9379 22.3603 21.0141L23.491 21.8692L26.3295 19.7308C26.5334 19.5776 26.7896 19.5115 27.0421 19.5468C27.2947 19.5821 27.5229 19.716 27.6769 19.9192C27.8301 20.1231 27.8962 20.3793 27.8609 20.6319C27.8256 20.8844 27.6917 21.1126 27.4885 21.2667V21.2679Z" fill="white"/>
</svg>
