<svg width="35" height="35" viewBox="0 0 35 35" fill="none" xmlns="http://www.w3.org/2000/svg">
<g clip-path="url(#clip0_35_2574)">
<path d="M10.9375 13.6566C10.7925 13.6566 10.6534 13.7142 10.5508 13.8168C10.4482 13.9194 10.3906 14.0585 10.3906 14.2035V20.7966C10.3906 20.9417 10.4482 21.0808 10.5508 21.1833C10.6534 21.2859 10.7925 21.3435 10.9375 21.3435C11.0825 21.3435 11.2216 21.2859 11.3242 21.1833C11.4268 21.0808 11.4844 20.9417 11.4844 20.7966V14.2035C11.4844 14.0585 11.4268 13.9194 11.3242 13.8168C11.2216 13.7142 11.0825 13.6566 10.9375 13.6566ZM22.6149 13.6566H20.6847C19.585 13.6566 18.6903 14.4564 18.6903 15.4394V19.5604C18.6903 20.5437 19.585 21.3432 20.6847 21.3432H22.6149C23.7147 21.3432 24.6094 20.5437 24.6094 19.5604V15.4397C24.6094 14.4564 23.7147 13.6566 22.6149 13.6566ZM23.5156 19.5604C23.5156 19.9339 23.103 20.2495 22.6149 20.2495H20.6847C20.1964 20.2495 19.784 19.9339 19.784 19.5604V15.4397C19.784 15.0662 20.1964 14.7506 20.6847 14.7506H22.6149C23.103 14.7506 23.5156 15.0662 23.5156 15.4397V19.5604Z" fill="white"/>
<path d="M33.9062 15.5859L33.2402 15.5783C33.1458 14.7893 32.9919 14.0086 32.7797 13.2429L33.39 12.9899C33.6578 12.8786 33.8704 12.6656 33.9814 12.3976C34.0923 12.1297 34.0924 11.8287 33.9817 11.5607L33.3539 10.045C33.2427 9.77727 33.0298 9.5646 32.7619 9.45367C32.4941 9.34273 32.1931 9.34259 31.9252 9.45328L31.3078 9.70074C30.9168 9.00915 30.4742 8.34802 29.9838 7.72297L30.4544 7.25266C30.6593 7.04735 30.7743 6.76915 30.7743 6.4791C30.7743 6.18905 30.6593 5.91085 30.4544 5.70555L29.2945 4.54563C29.0892 4.34068 28.811 4.22557 28.5209 4.22557C28.2308 4.22557 27.9526 4.34068 27.7473 4.54563L27.2716 5.01047C26.6458 4.52111 25.9842 4.07936 25.2924 3.68895L25.5467 3.07508C25.6573 2.80708 25.6572 2.50615 25.5462 2.23827C25.4353 1.97039 25.2227 1.75744 24.955 1.64609L23.4391 1.01828C23.171 0.907648 22.8701 0.907809 22.6021 1.01873C22.3342 1.12965 22.1212 1.34228 22.0098 1.61L21.7495 2.2173C20.9837 2.00611 20.203 1.85319 19.4141 1.75984V1.09375C19.4138 0.803758 19.2984 0.525727 19.0934 0.320672C18.8883 0.115617 18.6103 0.000289558 18.3203 0L16.6797 0C16.3897 0.000289558 16.1117 0.115617 15.9066 0.320672C15.7016 0.525727 15.5862 0.803758 15.5859 1.09375L15.5783 1.75984C14.7892 1.8542 14.0084 2.00813 13.2426 2.22031L12.9896 1.61C12.8785 1.34209 12.6655 1.12927 12.3975 1.01831C12.1295 0.907358 11.8284 0.907347 11.5604 1.01828L10.045 1.64609C9.77732 1.75738 9.5647 1.97029 9.45377 2.23812C9.34284 2.50595 9.34267 2.80684 9.45328 3.0748L9.70047 3.69223C9.00903 4.08333 8.34799 4.5259 7.72297 5.01621L7.25266 4.54563C7.04735 4.34075 6.76915 4.22568 6.4791 4.22568C6.18905 4.22568 5.91085 4.34075 5.70555 4.54563L4.54563 5.70555C4.34081 5.91089 4.22579 6.18908 4.22579 6.4791C4.22579 6.76913 4.34081 7.04731 4.54563 7.25266L5.01047 7.72844C4.52108 8.35417 4.07933 9.01574 3.68895 9.70758L3.07508 9.45328C2.80708 9.34266 2.50615 9.34283 2.23827 9.45375C1.97039 9.56467 1.75744 9.7773 1.64609 10.045L1.01828 11.5609C0.907573 11.829 0.907696 12.13 1.01862 12.3979C1.12955 12.6659 1.34223 12.8789 1.61 12.9902L2.2173 13.2505C2.00611 14.0163 1.85319 14.797 1.75984 15.5859H1.09375C0.803758 15.5862 0.525727 15.7016 0.320672 15.9066C0.115617 16.1117 0.000289558 16.3897 0 16.6797L0 18.3203C0.000289558 18.6103 0.115617 18.8883 0.320672 19.0934C0.525727 19.2984 0.803758 19.4138 1.09375 19.4141L1.75984 19.4217C1.8542 20.2108 2.00813 20.9916 2.22031 21.7574L1.61 22.0104C1.34223 22.1217 1.12955 22.3347 1.01862 22.6026C0.907696 22.8706 0.907573 23.1716 1.01828 23.4396L1.64609 24.9553C1.75732 25.223 1.97022 25.4357 2.23807 25.5466C2.50593 25.6575 2.80685 25.6577 3.0748 25.547L3.69223 25.2995C4.08323 25.9911 4.52581 26.6523 5.01621 27.2773L4.54563 27.7476C4.34075 27.9529 4.22568 28.2311 4.22568 28.5212C4.22568 28.8112 4.34075 29.0894 4.54563 29.2947L5.70555 30.4546C5.91082 30.6596 6.18903 30.7747 6.4791 30.7747C6.76917 30.7747 7.04738 30.6596 7.25266 30.4546L7.72844 29.9898C8.35417 30.4792 9.01574 30.9209 9.70758 31.3113L9.45328 31.9252C9.34266 32.1932 9.34283 32.4941 9.45375 32.762C9.56467 33.0299 9.7773 33.2428 10.045 33.3542L11.5607 33.982C11.8287 34.0927 12.1298 34.0925 12.3977 33.9815C12.6657 33.8706 12.8786 33.6578 12.9899 33.39L13.2502 32.783C14.0162 32.9941 14.7969 33.1469 15.5859 33.2402V33.9062C15.5862 34.1962 15.7016 34.4743 15.9066 34.6793C16.1117 34.8844 16.3897 34.9997 16.6797 35H18.3203C18.6103 34.9997 18.8883 34.8844 19.0934 34.6793C19.2984 34.4743 19.4138 34.1962 19.4141 33.9062L19.4217 33.2402C20.2107 33.1458 20.9914 32.9919 21.7571 32.7797L22.0101 33.3897C22.1213 33.6576 22.3343 33.8704 22.6023 33.9814C22.8702 34.0924 23.1713 34.0925 23.4393 33.9817L24.955 33.3539C25.2227 33.2426 25.4353 33.0297 25.5462 32.7619C25.6572 32.494 25.6573 32.1932 25.5467 31.9252L25.2993 31.3078C25.9908 30.9168 26.652 30.4742 27.277 29.9838L27.7473 30.4541C27.9525 30.6592 28.2308 30.7745 28.5209 30.7745C28.811 30.7745 29.0893 30.6592 29.2945 30.4541L30.4544 29.2945C30.6592 29.0891 30.7742 28.8109 30.7742 28.5209C30.7742 28.2309 30.6592 27.9527 30.4544 27.7473L29.9895 27.2716C30.4789 26.6458 30.9207 25.9843 31.3111 25.2924L31.9249 25.5467C32.1929 25.6573 32.4939 25.6572 32.7617 25.5462C33.0296 25.4353 33.2426 25.2227 33.3539 24.955L33.9817 23.4393C34.0924 23.1713 34.0923 22.8703 33.9814 22.6024C33.8704 22.3344 33.6578 22.1214 33.39 22.0101L32.7827 21.7498C32.9939 20.9839 33.1468 20.2031 33.2402 19.4141H33.9062C34.1962 19.4138 34.4743 19.2984 34.6793 19.0934C34.8844 18.8883 34.9997 18.6103 35 18.3203V16.6797C34.9997 16.3897 34.8844 16.1117 34.6793 15.9066C34.4743 15.7016 34.1962 15.5862 33.9062 15.5859ZM28.0692 11.2109H24.3666C23.6808 8.93594 22.6316 7.06234 21.3402 5.81219C24.1584 6.74586 26.5468 8.66208 28.0692 11.2109ZM18.0469 5.24016C20.2434 5.57266 22.1402 7.88703 23.2148 11.2109H18.0469V5.24016ZM16.9531 5.24016V11.2109H11.7852C12.8598 7.88703 14.7569 5.57266 16.9531 5.24016ZM13.6598 5.81219C12.3684 7.06234 11.3192 8.93621 10.6334 11.2109H6.93109C8.4534 8.66214 10.8417 6.74591 13.6598 5.81219ZM6.93082 23.7891H10.6334C11.3192 26.0641 12.3684 27.9377 13.6598 29.1878C10.8416 28.2541 8.4532 26.3379 6.93082 23.7891ZM16.9531 29.7598C14.7566 29.4273 12.8598 27.113 11.7852 23.7891H16.9531V29.7598ZM18.0469 29.7598V23.7891H23.2148C22.1402 27.113 20.2434 29.4273 18.0469 29.7598ZM21.3402 29.1878C22.6316 27.9377 23.6808 26.0638 24.3666 23.7891H28.0689C26.5466 26.3379 24.1583 28.2541 21.3402 29.1878ZM28.6519 22.6953H24.6608C24.7548 22.2992 24.8382 21.8933 24.9107 21.4777C24.5551 21.8445 24.1148 22.1182 23.6286 22.2748C23.5963 22.4156 23.5643 22.557 23.5293 22.6953H18.0469V21.554C17.75 21.8854 17.3736 22.1357 16.9531 22.2813V22.6953H11.4707C11.4436 22.5887 11.4196 22.4796 11.3941 22.3716C11.0142 22.4829 10.6066 22.4515 10.2482 22.2832C10.2777 22.4211 10.307 22.5594 10.3392 22.6953H6.34812C5.58878 21.0686 5.19525 19.2952 5.19525 17.5C5.19525 15.7048 5.58878 13.9314 6.34812 12.3047H10.3392C10.307 12.4403 10.2777 12.5789 10.2482 12.7168C10.6063 12.5476 11.0143 12.5168 11.3939 12.6301C11.4193 12.5215 11.4436 12.4116 11.4704 12.3047H16.9531V12.5628H17.0174C17.3924 12.5626 17.756 12.6917 18.0469 12.9284V12.3047H23.5293C23.5643 12.443 23.5963 12.5844 23.6286 12.7252C24.1149 12.8818 24.5553 13.1555 24.911 13.5223C24.8384 13.107 24.755 12.7012 24.6608 12.3047H28.6519C29.4112 13.9314 29.8047 15.7048 29.8047 17.5C29.8047 19.2952 29.4112 21.0686 28.6519 22.6953Z" fill="white"/>
<path d="M14.1225 14.7503H17.0176C17.1627 14.7503 17.3018 14.6927 17.4043 14.5901C17.5069 14.4875 17.5645 14.3484 17.5645 14.2034C17.5645 14.0584 17.5069 13.9193 17.4043 13.8167C17.3018 13.7141 17.1627 13.6565 17.0176 13.6565H14.1225C13.7405 13.6392 13.3671 13.7736 13.0839 14.0304C12.8006 14.2873 12.6304 14.6457 12.6104 15.0275V16.6758C12.6304 17.0577 12.8006 17.4161 13.0839 17.6729C13.3671 17.9298 13.7405 18.0642 14.1225 18.0468H16.0529C16.299 18.0468 16.4707 18.1928 16.4707 18.3241V19.9724C16.4707 20.1036 16.299 20.2496 16.0527 20.2496H13.1572C13.0122 20.2496 12.8731 20.3073 12.7705 20.4098C12.668 20.5124 12.6104 20.6515 12.6104 20.7965C12.6104 20.9416 12.668 21.0807 12.7705 21.1832C12.8731 21.2858 13.0122 21.3434 13.1572 21.3434H16.0529C16.4348 21.3607 16.8081 21.2262 17.0912 20.9694C17.3744 20.7125 17.5445 20.3542 17.5645 19.9724V18.3241C17.5445 17.9423 17.3744 17.5838 17.0911 17.327C16.8079 17.0702 16.4346 16.9357 16.0527 16.9531H14.1225C13.8764 16.9531 13.7041 16.8071 13.7041 16.6758V15.0275C13.7041 14.8963 13.8764 14.7503 14.1225 14.7503Z" fill="white"/>
</g>
<defs>
<clipPath id="clip0_35_2574">
<rect width="35" height="35" fill="white"/>
</clipPath>
</defs>
</svg>
