<svg width="52" height="52" viewBox="0 0 52 52" fill="none" xmlns="http://www.w3.org/2000/svg">
<circle cx="26" cy="26" r="26" fill="url(#paint0_linear_35_2498)"/>
<path d="M27.4863 40C27.3699 40.0002 27.2569 39.9605 27.1662 39.8874C27.0755 39.8143 27.0127 39.7123 26.9881 39.5985C26.9636 39.4846 26.9789 39.3658 27.0314 39.2619C27.0839 39.1579 27.1705 39.0752 27.2767 39.0274C29.9504 37.8223 32.1753 36.1635 33.8911 34.0983C33.9338 34.0469 33.9861 34.0043 34.0452 33.9731C34.1043 33.9419 34.169 33.9227 34.2355 33.9165C34.302 33.9103 34.3691 33.9172 34.433 33.9369C34.4968 33.9566 34.5561 33.9888 34.6076 34.0314C34.659 34.0741 34.7015 34.1264 34.7327 34.1855C34.7639 34.2446 34.7832 34.3093 34.7894 34.3758C34.7956 34.4423 34.7887 34.5094 34.7689 34.5733C34.7492 34.6371 34.7171 34.6964 34.6745 34.7479C32.8585 36.9342 30.5109 38.6856 27.6954 39.9547C27.6297 39.9845 27.5584 39.9999 27.4863 40ZM39.1351 19.5409C39.0682 19.5367 39.0012 19.5458 38.9379 19.5675C38.8746 19.5893 38.8162 19.6234 38.7661 19.6679C38.716 19.7123 38.6751 19.7662 38.6459 19.8265C38.6167 19.8867 38.5997 19.9522 38.5959 20.0191C38.4229 23.178 37.9346 25.9045 37.1105 28.28C37.4514 28.3563 37.7667 28.4886 38.0516 28.6717C38.9164 26.1944 39.4352 23.356 39.6132 20.075C39.617 20.0085 39.6075 19.942 39.5855 19.8792C39.5635 19.8163 39.5293 19.7585 39.4849 19.7088C39.4405 19.6592 39.3867 19.6189 39.3267 19.5901C39.2667 19.5612 39.2016 19.5445 39.1351 19.5409ZM35.5031 13.2485C32.9088 12.8518 30.0195 12.0582 27.5728 11.0409C27.5117 11.0151 27.4461 11.0016 27.3798 11.0012C27.3134 11.0008 27.2477 11.0135 27.1863 11.0386C27.1248 11.0636 27.069 11.1005 27.0218 11.1472C26.9747 11.1938 26.9372 11.2493 26.9115 11.3105C26.7996 11.5699 26.9217 11.87 27.1811 11.9768C29.7194 13.0349 32.7308 13.864 35.4319 14.2608C35.398 13.9218 35.4221 13.5795 35.5031 13.2485ZM38.4687 11.926C37.3466 11.926 36.434 12.8385 36.434 13.9607C36.434 15.0828 37.3466 15.9954 38.4687 15.9954C39.5909 15.9954 40.5034 15.0828 40.5034 13.9607C40.5034 12.8385 39.5909 11.926 38.4687 11.926ZM36.434 29.2211C35.3118 29.2211 34.3993 30.1336 34.3993 31.2558C34.3993 32.3779 35.3118 33.2905 36.434 33.2905C37.5561 33.2905 38.4687 32.3779 38.4687 31.2558C38.4687 30.1336 37.5561 29.2211 36.434 29.2211ZM24.0171 40C24.1336 40.0002 24.2466 39.9605 24.3373 39.8874C24.4279 39.8143 24.4908 39.7123 24.5153 39.5985C24.5398 39.4846 24.5246 39.3658 24.472 39.2619C24.4195 39.1579 24.3329 39.0752 24.2267 39.0274C21.5531 37.8223 19.3281 36.1635 17.6128 34.0983C17.5702 34.0469 17.5178 34.0043 17.4587 33.9731C17.3996 33.9419 17.335 33.9227 17.2685 33.9165C17.2019 33.9103 17.1348 33.9172 17.071 33.9369C17.0071 33.9566 16.9478 33.9888 16.8964 34.0314C16.8449 34.0741 16.8024 34.1264 16.7712 34.1855C16.74 34.2446 16.7207 34.3093 16.7145 34.3758C16.702 34.5102 16.7433 34.644 16.8295 34.7479C18.6449 36.9337 20.993 38.6856 23.8086 39.9547C23.8762 39.9852 23.9474 40 24.0171 40ZM11.8902 20.075C12.0682 23.356 12.5871 26.1944 13.4518 28.6717C13.7367 28.4886 14.0521 28.3563 14.3929 28.28C13.5688 25.9045 13.0805 23.178 12.9075 20.0191C12.9037 19.9522 12.8867 19.8867 12.8575 19.8265C12.8283 19.7662 12.7875 19.7123 12.7374 19.6679C12.6873 19.6234 12.6289 19.5893 12.5655 19.5675C12.5022 19.5458 12.4352 19.5367 12.3683 19.5409C12.0886 19.5562 11.8749 19.7952 11.8902 20.075ZM16.0868 13.9607C16.0868 14.0624 16.0817 14.1641 16.0715 14.2608C18.7726 13.864 21.784 13.0349 24.3223 11.9768C24.5818 11.87 24.7038 11.5699 24.5919 11.3105C24.4851 11.0561 24.185 10.9289 23.9306 11.0409C21.4839 12.0582 18.5946 12.8518 16.0003 13.2485C16.0563 13.4774 16.0868 13.7165 16.0868 13.9607ZM11 13.9607C11 15.0828 11.9126 15.9954 13.0347 15.9954C14.1569 15.9954 15.0694 15.0828 15.0694 13.9607C15.0694 12.8385 14.1569 11.926 13.0347 11.926C11.9126 11.926 11 12.8385 11 13.9607ZM13.0347 31.2558C13.0347 32.3779 13.9473 33.2905 15.0694 33.2905C16.1916 33.2905 17.1042 32.3779 17.1042 31.2558C17.1042 30.1336 16.1916 29.2211 15.0694 29.2211C13.9473 29.2211 13.0347 30.1336 13.0347 31.2558ZM25.7558 21.0898C25.2921 21.0856 24.8411 21.241 24.4785 21.53C24.1158 21.819 23.8637 22.224 23.7643 22.6769C23.5868 23.5183 23.9312 24.3622 24.6428 24.8271C24.7369 24.8886 24.8079 24.9796 24.8448 25.0858C24.8818 25.192 24.8824 25.3075 24.8468 25.4141L23.9144 28.2119H27.5896L26.6567 25.4141C26.6211 25.3074 26.6218 25.1919 26.6588 25.0857C26.6958 24.9795 26.767 24.8886 26.8611 24.8271C27.1451 24.6431 27.3785 24.3909 27.5401 24.0937C27.7017 23.7964 27.7864 23.4634 27.7864 23.1251C27.7864 22.5096 27.5117 21.9337 27.0336 21.5451C26.6733 21.2494 26.2218 21.0885 25.7558 21.0898ZM36.1105 18.2804C35.9279 25.2834 34.6333 32.9777 26.415 36.9474C26.207 37.0476 25.9796 37.0975 25.7517 37.0975C25.5238 37.0975 25.2964 37.0476 25.0889 36.9474C16.8702 32.9767 15.5756 25.2829 15.393 18.2799C15.3838 17.9128 15.5078 17.5548 15.7422 17.2721C15.9765 16.9894 16.3053 16.8012 16.6677 16.7421C19.496 16.292 22.5928 15.416 25.1652 14.3386C25.3509 14.2604 25.5504 14.22 25.752 14.22C25.9535 14.22 26.153 14.2604 26.3387 14.3386C28.9106 15.416 32.008 16.292 34.8357 16.7421C35.1982 16.8013 35.527 16.9896 35.7613 17.2724C35.9957 17.5552 36.1197 17.9132 36.1105 18.2804ZM27.7376 25.439C28.0722 25.1535 28.3409 24.7987 28.525 24.3992C28.709 23.9997 28.8042 23.5649 28.8038 23.1251C28.8046 22.6709 28.7036 22.2224 28.5084 21.8124C28.3131 21.4024 28.0286 21.0413 27.6755 20.7556C26.9583 20.1722 26.0188 19.9494 25.0991 20.1411C23.9495 20.3812 23.0125 21.3157 22.7693 22.4658C22.5323 23.5885 22.9199 24.7152 23.7663 25.439L22.9489 27.8899C22.8461 28.1991 22.898 28.542 23.0888 28.8065C23.2795 29.071 23.5878 29.2292 23.9139 29.2292H27.5896C27.9156 29.2292 28.2244 29.0715 28.4152 28.8065C28.6059 28.542 28.6578 28.1991 28.5545 27.8899L27.7376 25.439Z" fill="white"/>
<defs>
<linearGradient id="paint0_linear_35_2498" x1="7.32135" y1="-16.7606" x2="70.064" y2="10.6465" gradientUnits="userSpaceOnUse">
<stop offset="0.365385" stop-color="#30204D"/>
<stop offset="1" stop-color="#533589"/>
</linearGradient>
</defs>
</svg>
