<svg width="78" height="78" viewBox="0 0 78 78" fill="none" xmlns="http://www.w3.org/2000/svg">
<circle cx="39" cy="39" r="39" fill="#FF9500"/>
<path d="M44.8578 37.9692L42.2275 37.045C42.0142 36.3341 41.7299 35.6232 41.3033 34.9123L42.5119 32.4242C42.6541 32.1398 42.583 31.7844 42.3697 31.6422L39.3128 28.5853C39.0995 28.3721 38.7441 28.301 38.5308 28.4431L36.0427 29.6517C35.3318 29.2962 34.6209 29.0119 33.91 28.7275L32.9858 26.0972C32.9147 25.8128 32.6303 25.5995 32.346 25.5995H28.0095C27.7251 25.5995 27.4408 25.8128 27.2986 26.0972L26.3744 28.7275C25.6635 28.9408 24.9526 29.2251 24.2417 29.6517L21.8247 28.3721C21.5403 28.2299 21.2559 28.301 20.9716 28.5142L17.9147 31.5711C17.7014 31.7844 17.6303 32.1398 17.7725 32.3531L18.981 34.8413C18.6256 35.5522 18.3412 36.2631 18.128 36.974L15.4976 37.8981C15.2133 38.0403 15 38.3247 15 38.609V42.9455C15 43.2299 15.2133 43.5142 15.4976 43.6564L18.128 44.5806C18.3412 45.2915 18.6256 46.0024 19.0521 46.7133L17.8436 49.2015C17.7014 49.4858 17.7725 49.8413 17.9858 50.0545L21.0427 53.1114C21.2559 53.3247 21.6114 53.3958 21.8957 53.2536L24.3839 52.0451C25.0948 52.4005 25.8057 52.6849 26.5166 52.9692L27.4408 55.5996C27.5119 55.8839 27.7962 56.0972 28.0806 56.0972H32.4171C32.7014 56.0972 32.9858 55.8839 33.0569 55.5996L33.9811 52.9692C34.692 52.756 35.4029 52.4716 36.1138 52.0451L38.6019 53.2536C38.8863 53.3958 39.1706 53.3247 39.3839 53.1114L42.4408 50.0545C42.654 49.8413 42.7251 49.4858 42.583 49.2015L41.3033 46.6422C41.6588 45.9313 41.9431 45.2204 42.2275 44.5095L44.8578 43.5853C45.1422 43.5142 45.3555 43.2299 45.3555 42.8744V38.5379C45.3555 38.3247 45.1422 38.0403 44.8578 37.9692ZM30.1422 46.8555C26.801 46.8555 24.0995 44.1541 24.0995 40.8128C24.0995 37.4716 26.801 34.7702 30.1422 34.7702C33.4834 34.7702 36.1849 37.4716 36.1849 40.8128C36.1849 44.083 33.4834 46.8555 30.1422 46.8555ZM60 23.8223L58.5782 23.3247C58.4361 22.9692 58.2939 22.6137 58.1517 22.3294L58.7915 20.9787C58.9337 20.6943 58.8626 20.41 58.6493 20.1256L56.9432 18.3483C56.7299 18.1351 56.3744 18.064 56.1612 18.2062L54.8105 18.846C54.455 18.7038 54.1706 18.5616 53.8152 18.4194L53.3176 16.9976C53.2465 16.7133 52.9621 16.5 52.6778 16.5H50.1185C49.8342 16.5 49.5498 16.7133 49.4076 16.9976L48.91 18.4194C48.5545 18.5616 48.1991 18.7038 47.9147 18.846L46.564 18.2062C46.2796 18.064 45.9242 18.1351 45.7109 18.3483L43.9337 20.1256C43.7204 20.3389 43.6493 20.6943 43.7915 20.9787L44.4313 22.3294C44.2891 22.6848 44.1469 22.9692 44.0048 23.3247L42.583 23.8223C42.2986 23.8934 42.0853 24.1777 42.0853 24.4621V27.0213C42.0853 27.3057 42.2986 27.5901 42.583 27.6611L44.0048 28.1588L44.4313 29.2251L43.7915 30.5048C43.6493 30.7891 43.7204 31.1446 43.9337 31.3578L45.7109 33.1351C45.9242 33.3484 46.2796 33.4194 46.564 33.2773L47.9147 32.6375C48.2702 32.7796 48.6256 32.9218 48.91 33.064L49.4076 34.4858C49.4787 34.7702 49.7631 34.9834 50.1185 34.9834H52.6778C52.9621 34.9834 53.2465 34.7702 53.3176 34.4858L53.8152 33.064C54.1706 32.9218 54.5261 32.7796 54.8105 32.6375L56.1612 33.2773C56.4455 33.4194 56.7299 33.3484 57.0142 33.1351L58.7915 31.3578C59.0048 31.1446 59.0759 30.7891 58.9337 30.5048L58.2939 29.154L58.7204 28.0877L60.1422 27.5901C60.4266 27.519 60.6398 27.2346 60.6398 26.9502V24.391C60.4977 24.1777 60.2844 23.8934 60 23.8223ZM51.327 29.2962C49.3365 29.2962 47.7725 27.7322 47.7725 25.7417C47.7725 23.8223 49.3365 22.1872 51.327 22.1872C53.2465 22.1872 54.8815 23.7512 54.8815 25.7417C54.8815 27.7322 53.2465 29.2962 51.327 29.2962Z" fill="white"/>
<path d="M59.999 46.9978L58.0085 46.2869C57.8663 45.7182 57.6531 45.2206 57.3687 44.723L58.2929 42.8035C58.4351 42.5192 58.364 42.2348 58.1507 42.0215L55.7336 39.6045C55.5204 39.3912 55.1649 39.3201 54.8806 39.4623L53.0322 40.4576C52.5346 40.1732 51.9659 39.9599 51.4682 39.8177L50.8284 37.8272C50.7573 37.5429 50.473 37.3296 50.1175 37.3296H46.7052C46.563 37.3296 46.4919 37.3296 46.3497 37.4007C46.563 37.7561 46.7052 38.1827 46.7052 38.6092V42.9457C46.7052 43.8699 46.1365 44.6519 45.2834 44.9362L43.2929 45.6471C43.1507 46.0026 43.0085 46.358 42.8663 46.6424L43.7905 48.4907C44.217 49.3438 44.0749 50.268 43.364 50.9789L40.3071 54.0358C39.9516 54.3912 39.5251 54.6045 39.0985 54.6756L38.4587 55.9552C38.3166 56.2396 38.3876 56.5239 38.6009 56.7372L41.018 59.1543C41.2312 59.3675 41.5867 59.4386 41.8711 59.2964L43.7905 58.3723C44.2881 58.6566 44.8568 58.8699 45.3545 59.0121L46.0654 61.0026C46.1365 61.287 46.4208 61.5002 46.7763 61.5002H50.1886C50.473 61.5002 50.7573 61.287 50.8995 61.0026L51.5393 59.0121C52.108 58.7988 52.6057 58.5855 53.1033 58.3723L55.0227 59.2964C55.3071 59.4386 55.5915 59.3675 55.8758 59.1543L58.2929 56.7372C58.5061 56.5239 58.5772 56.1685 58.4351 55.9552L57.5109 54.0358C57.7952 53.5381 58.0085 52.9694 58.1507 52.4718L60.1412 51.7609C60.4256 51.6898 60.6388 51.4054 60.6388 51.05V47.6377C60.4967 47.3533 60.2834 47.14 59.999 46.9978ZM49.1223 54.1779C48.4968 54.1779 47.8774 54.0547 47.2995 53.8154C46.7216 53.576 46.1966 53.2252 45.7543 52.7829C45.312 52.3406 44.9611 51.8155 44.7218 51.2376C44.4824 50.6598 44.3592 50.0404 44.3592 49.4149C44.3592 48.7894 44.4824 48.1701 44.7218 47.5922C44.9611 47.0143 45.312 46.4892 45.7543 46.0469C46.1966 45.6046 46.7216 45.2538 47.2995 45.0144C47.8774 44.7751 48.4968 44.6519 49.1223 44.6519C50.3855 44.6519 51.597 45.1537 52.4902 46.0469C53.3835 46.9402 53.8853 48.1517 53.8853 49.4149C53.8853 50.6781 53.3835 51.8896 52.4902 52.7829C51.597 53.6761 50.3855 54.1779 49.1223 54.1779Z" fill="white"/>
</svg>
