<svg width="78" height="78" viewBox="0 0 78 78" fill="none" xmlns="http://www.w3.org/2000/svg">
<circle cx="39" cy="39" r="39" fill="url(#paint0_linear_35_3394)"/>
<path d="M35.5314 41.5907C35.5314 39.5804 36.63 37.7805 38.4065 36.8923L43.0816 34.508C43.8296 34.134 44.6477 33.947 45.4659 33.947H51.894V23.4282C51.894 19.8751 49.0189 17 45.4659 17H24.4282C20.8751 17 18 19.8751 18 23.4282V53.8159C18 57.369 20.8751 60.2441 24.4282 60.2441H40.4636C37.2931 56.8331 35.5311 52.3485 35.5314 47.6916V41.5907ZM24.4282 24.0126H40.7908C41.2558 24.0126 41.7017 24.1973 42.0305 24.526C42.3592 24.8548 42.544 25.3007 42.544 25.7657C42.544 26.2307 42.3592 26.6766 42.0305 27.0054C41.7017 27.3341 41.2558 27.5188 40.7908 27.5188H24.4282C23.9632 27.5188 23.5173 27.3341 23.1885 27.0054C22.8597 26.6766 22.675 26.2307 22.675 25.7657C22.675 25.3007 22.8597 24.8548 23.1885 24.526C23.5173 24.1973 23.9632 24.0126 24.4282 24.0126ZM31.4407 41.544H24.4282C23.9632 41.544 23.5173 41.3592 23.1885 41.0305C22.8597 40.7017 22.675 40.2558 22.675 39.7908C22.675 39.3259 22.8597 38.8799 23.1885 38.5512C23.5173 38.2224 23.9632 38.0377 24.4282 38.0377H31.4407C31.9057 38.0377 32.3516 38.2224 32.6804 38.5512C33.0092 38.8799 33.1939 39.3259 33.1939 39.7908C33.1939 40.2558 33.0092 40.7017 32.6804 41.0305C32.3516 41.3592 31.9057 41.544 31.4407 41.544ZM33.7783 34.5314H24.4282C23.9632 34.5314 23.5173 34.3467 23.1885 34.0179C22.8597 33.6891 22.675 33.2432 22.675 32.7783C22.675 32.3133 22.8597 31.8674 23.1885 31.5386C23.5173 31.2098 23.9632 31.0251 24.4282 31.0251H33.7783C34.2432 31.0251 34.6891 31.2098 35.0179 31.5386C35.3467 31.8674 35.5314 32.3133 35.5314 32.7783C35.5314 33.2432 35.3467 33.6891 35.0179 34.0179C34.6891 34.3467 34.2432 34.5314 33.7783 34.5314ZM60.2857 40.0152L55.6107 37.6426C55.3642 37.5183 55.092 37.4535 54.8159 37.4533H45.4659C45.1898 37.4538 44.9177 37.5186 44.6711 37.6426L39.9961 40.0152C39.7075 40.162 39.4652 40.3858 39.2961 40.6618C39.1269 40.9378 39.0375 41.2553 39.0377 41.579V47.6986C39.0377 53.9094 42.918 59.5499 48.701 61.7354C49.6309 62.089 50.6584 62.0882 51.5878 61.7331C57.3638 59.5499 61.2441 53.9094 61.2441 47.6986V41.579C61.2443 41.2553 61.1549 40.9378 60.9857 40.6618C60.8166 40.3858 60.5743 40.162 60.2857 40.0152ZM54.9562 47.3597L50.7486 52.0698C50.5836 52.2534 50.3817 52.4003 50.1562 52.5008C49.9307 52.6013 49.6865 52.6533 49.4396 52.6533C49.1927 52.6533 48.9486 52.6013 48.7231 52.5008C48.4975 52.4003 48.2957 52.2534 48.1306 52.0698L45.3256 48.9282C45.1723 48.7563 45.0543 48.5559 44.9784 48.3384C44.9026 48.1209 44.8703 47.8906 44.8834 47.6606C44.8965 47.4306 44.9548 47.2055 45.055 46.998C45.1551 46.7906 45.2951 46.6049 45.467 46.4516C45.6389 46.2982 45.8393 46.1803 46.0568 46.1044C46.2743 46.0285 46.5046 45.9962 46.7346 46.0094C46.9646 46.0225 47.1897 46.0808 47.3972 46.1809C47.6046 46.2811 47.7903 46.4211 47.9436 46.593L49.442 48.269L52.3405 45.0222C52.6502 44.675 53.0851 44.4651 53.5495 44.4386C54.014 44.412 54.4699 44.5711 54.8171 44.8808C55.1643 45.1904 55.3742 45.6253 55.4007 46.0898C55.4272 46.5542 55.2682 47.0102 54.9585 47.3574L54.9562 47.3597Z" fill="white"/>
<defs>
<linearGradient id="paint0_linear_35_3394" x1="10.982" y1="-25.1409" x2="105.096" y2="15.9698" gradientUnits="userSpaceOnUse">
<stop offset="0.365385" stop-color="#30204D"/>
<stop offset="1" stop-color="#533589"/>
</linearGradient>
</defs>
</svg>
