<svg width="183" height="85" viewBox="0 0 183 85" fill="none" xmlns="http://www.w3.org/2000/svg">
<mask id="mask0_35_2126" style="mask-type:luminance" maskUnits="userSpaceOnUse" x="0" y="0" width="183" height="85">
<path d="M182.526 0H0V85H182.526V0Z" fill="white"/>
</mask>
<g mask="url(#mask0_35_2126)">
<path d="M181.425 12.857C181.73 12.9793 181.976 13.2851 181.976 13.652C182.16 16.6484 182.893 30.3462 182.772 33.2203C182.588 39.2131 180.872 45.1447 177.688 50.4649L154.168 85.1376V42.5154C156.495 42.2095 158.272 40.2527 158.272 37.8677C158.272 35.2994 156.189 33.1592 153.555 33.1592C150.922 33.1592 148.839 35.2384 148.839 37.8677C148.839 40.2527 150.615 42.2095 152.943 42.5154V85.1376L129.423 50.4649C126.238 45.1447 124.523 39.2131 124.339 33.2203C124.216 30.2851 124.951 16.6484 125.135 13.652C125.135 13.2851 125.38 12.9793 125.686 12.857C131.321 10.839 145.96 4.78508 153.065 0.13759C153.372 -0.0458633 153.739 -0.0458633 154.045 0.13759C161.089 4.78508 175.79 10.839 181.425 12.857Z" fill="black"/>
<path fill-rule="evenodd" clip-rule="evenodd" d="M82.6882 54.9285C82.6882 54.6227 82.382 54.3169 82.0145 54.3169V54.3781H77.9106C77.6045 54.3781 77.2982 54.6227 77.2982 54.9895V56.2737C76.2569 54.9285 74.2969 54.0723 71.9694 54.0723C66.3343 54.0723 62.9043 57.986 62.9043 64.04C62.9043 70.0327 66.2731 74.0076 72.0306 74.0076C74.2969 74.0076 76.3794 73.1514 77.3594 71.745V74.2522C77.3594 76.0255 76.1345 77.3097 74.5418 77.3097H66.2731C65.9055 77.3097 65.5994 77.5543 65.5994 77.9213V80.7953C65.5994 81.1623 65.9055 81.468 66.2731 81.468H75.3994C79.7482 81.468 82.6882 78.8384 82.6882 74.8026V54.9285ZM72.8269 58.5974C75.7057 58.5974 77.6045 60.7989 77.6045 64.04C77.6045 67.281 75.7669 69.4212 72.8269 69.4212C70.0094 69.4212 68.1106 67.281 68.1106 64.04C68.1106 60.7378 70.0094 58.5974 72.8269 58.5974Z" fill="black"/>
<path d="M87.5271 54.3174H91.6308C91.9983 54.3174 92.3046 54.6232 92.3046 54.9901V57.0081C93.4071 55.1123 95.5508 54.0117 98.1846 54.0117C102.595 54.0117 105.412 57.1915 105.412 61.5944V73.0296C105.412 73.3965 105.106 73.7023 104.738 73.7023H100.635C100.267 73.7023 99.9608 73.3965 99.9608 73.0296V62.8175C99.9608 60.4937 98.4908 58.7815 96.2246 58.7815C93.8971 58.7815 92.2432 60.616 92.2432 63.062V73.0296C92.2432 73.3965 91.9371 73.7023 91.5695 73.7023H87.4657C87.0983 73.7023 86.792 73.3965 86.792 73.0296V54.929C86.9145 54.6232 87.1595 54.3174 87.5271 54.3174Z" fill="black"/>
<path d="M58.9847 54.3174H54.881C54.5135 54.3174 54.2686 54.6232 54.2686 54.9901V73.0909C54.2686 73.4578 54.5135 73.7634 54.881 73.7634H58.9847C59.291 73.7634 59.5973 73.4578 59.5973 73.0909V54.9901C59.5973 54.6232 59.3522 54.3174 58.9847 54.3174Z" fill="black"/>
<path d="M59.78 47.4689V51.8107C59.78 52.1776 59.4737 52.4834 59.1063 52.4834H54.6963C54.3288 52.4834 54.0225 52.1776 54.0225 51.8107V47.4689C54.0225 47.102 54.3288 46.8575 54.6963 46.8575H59.1063C59.4737 46.7962 59.78 47.102 59.78 47.4689Z" fill="black"/>
<path d="M31.4826 64.5298C31.115 64.5298 30.8701 64.8355 30.8701 65.2636C30.9926 66.67 31.5438 68.3823 32.4013 69.5441C33.3201 70.9506 34.545 72.0514 36.0763 72.8464C37.6077 73.6412 39.3838 74.0082 41.405 74.0082C43.3652 74.0082 45.1414 73.7024 46.6726 73.0297C48.204 72.4183 49.4289 71.4398 50.2864 70.2168C51.144 68.9937 51.5728 67.5262 51.5728 65.875C51.5728 63.9794 51.0827 62.4507 50.2252 61.3499C49.3677 60.2492 48.2652 59.4542 47.1014 58.9651C45.9989 58.4757 44.4677 58.0478 42.6301 57.6197C41.2826 57.3139 40.3026 57.0082 39.5677 56.7635C38.8938 56.5189 38.2813 56.152 37.8526 55.7239C37.4238 55.296 37.2401 54.8068 37.2401 54.1341C37.2401 53.3391 37.5463 52.7277 38.2201 52.2383C38.8938 51.7491 39.8126 51.5046 41.0377 51.5046C42.2626 51.5046 43.3038 51.8714 44.1001 52.4829C44.7126 52.9722 45.1414 53.6449 45.3252 54.3787C45.3864 54.6845 45.6314 54.8679 45.9377 54.8679H50.2252C50.5927 54.8679 50.8989 54.501 50.8377 54.1341L50.828 54.0649C50.7569 53.5494 50.5403 51.9795 49.4901 50.465C48.6327 49.2419 47.4689 48.2023 45.9989 47.5298C44.5289 46.8571 42.8752 46.4902 40.9764 46.4902C39.2001 46.4902 37.5463 46.8571 36.1375 47.4686C34.7289 48.08 33.565 48.9973 32.7687 50.1592C31.9726 51.3823 31.5438 52.7277 31.5438 54.1952C31.5438 56.0297 31.9726 57.5585 32.8301 58.6593C33.6875 59.7599 34.7289 60.6161 35.8926 61.1053C37.0563 61.5944 38.5263 62.0836 40.3638 62.5117C41.6501 62.8175 42.6301 63.1232 43.3652 63.3679C44.0389 63.6125 44.5901 63.9794 45.0189 64.4075C45.4477 64.7744 45.6314 65.2636 45.6314 65.9363C45.6314 66.9758 45.2638 67.7096 44.5289 68.1988C43.7326 68.7492 42.6301 68.9937 41.2826 68.9937C39.8126 68.9937 38.6489 68.6269 37.7913 67.8319C37.0563 67.1592 36.5663 66.1196 36.3826 65.019C36.3826 64.7744 36.0763 64.5298 35.7701 64.5298H31.4826Z" fill="black"/>
<path d="M21.2539 46.7954H17.2114C16.8439 46.7954 16.5989 47.1013 16.5989 47.4071V64.1013L6.1863 47.04C6.06379 46.8567 5.88004 46.7344 5.63504 46.7344H0.612505C0.245002 46.7344 0 47.04 0 47.3458V72.9682C0 73.3351 0.306253 73.6407 0.612505 73.6407H4.65504C5.02254 73.6407 5.26754 73.3351 5.26754 72.9682V55.7847L15.9251 73.3962C16.0476 73.5797 16.2314 73.702 16.4764 73.702H21.2539C21.6214 73.702 21.8665 73.3962 21.8665 73.0293V47.4071C21.9277 47.1013 21.6214 46.7954 21.2539 46.7954Z" fill="black"/>
<path d="M37.6694 19.0332C31.6668 19.0332 27.6855 23.3748 27.6855 29.0008C27.6855 34.6268 31.728 38.9684 37.6694 38.9684C42.4469 38.9684 46.2445 36.1555 47.1631 32.2418C47.2857 31.8137 46.9794 31.4468 46.5506 31.4468H42.3243C42.0182 31.4468 41.7731 31.6303 41.7119 31.8749C41.1606 33.4037 39.6906 34.382 37.9143 34.382C34.9743 34.382 33.2592 32.1806 33.2592 29.0008C33.2592 25.8209 34.9743 23.5584 37.8531 23.5584C39.6294 23.5584 41.1606 24.659 41.6506 26.1267C41.7119 26.3713 41.9569 26.5548 42.2631 26.5548H46.4282C46.7957 26.5548 47.1019 26.1879 47.0406 25.8209C46.3057 21.785 42.4469 19.0332 37.6694 19.0332Z" fill="black"/>
<path d="M51.0215 11.6953H55.064C55.4315 11.6953 55.7378 12.0011 55.7378 12.3068V21.9687C56.8403 20.0731 58.984 18.9723 61.6791 18.9723C66.0278 18.9723 68.8454 22.1521 68.8454 26.5551V38.0514C68.8454 38.4183 68.5391 38.7241 68.1717 38.7241H64.1291C63.7615 38.7241 63.5166 38.4183 63.5166 38.0514V27.8392C63.5166 25.5155 61.9854 23.8033 59.7191 23.8033C57.3915 23.8033 55.7378 25.6378 55.7378 28.0838V38.0514C55.7378 38.4183 55.4315 38.7241 55.064 38.7241H51.0215C50.654 38.7241 50.3477 38.4183 50.3477 38.0514V12.368C50.3477 12.0011 50.654 11.6953 51.0215 11.6953Z" fill="black"/>
<path fill-rule="evenodd" clip-rule="evenodd" d="M89.1189 38.0511V26.249C89.1189 21.8461 85.5663 19.0332 80.6663 19.0332C75.7051 19.0332 72.5812 21.7238 72.03 25.2706C71.9687 25.6375 72.2751 26.0044 72.6424 26.0044H76.1338C76.44 26.0044 76.6851 25.8209 76.7463 25.5152C77.0526 24.1088 78.2163 22.9469 80.2988 22.9469C82.5038 22.9469 83.7901 24.1088 83.7901 25.6986C83.7901 26.4935 83.3001 27.1052 82.3201 27.1052H79.0738C74.7863 27.1052 71.9688 29.4289 71.9688 33.2201C71.9688 36.5224 74.5412 39.0296 78.3387 39.0296C80.9726 39.0296 83.1163 37.8678 83.7901 36.0332V38.0511C83.7901 38.3569 84.0351 38.6626 84.4026 38.6626H88.4451C88.8126 38.6626 89.1189 38.418 89.1189 38.0511ZM83.6063 30.4685C83.7289 30.4685 83.8514 30.5908 83.8514 30.7131C83.8514 33.2201 82.3201 35.1159 79.7475 35.1159C78.2775 35.1159 77.1751 34.2597 77.1751 32.9756C77.1751 31.4468 78.3387 30.4685 79.9314 30.4685H83.6063Z" fill="black"/>
<path d="M29.4607 11.6953H8.75802C8.39051 11.6953 8.14551 12.0011 8.14551 12.3068V16.3428C8.14551 16.7096 8.45175 17.0154 8.75802 17.0154H16.5368V38.0514C16.5368 38.4183 16.8431 38.7241 17.1493 38.7241H21.1919C21.5594 38.7241 21.8656 38.4183 21.8656 38.0514V17.0154H29.3994C29.767 17.0154 30.0119 16.7096 30.0119 16.3428V12.368C30.1343 12.0011 29.8282 11.6953 29.4607 11.6953Z" fill="black"/>
<path d="M100.207 19.3394V14.2639C100.207 13.897 99.9004 13.5912 99.5328 13.6524H95.4904C95.1841 13.6524 94.8777 13.897 94.8777 14.2639V19.3394H91.8153C91.4477 19.3394 91.1416 19.584 91.1416 19.9509V23.1308C91.1416 23.4977 91.4477 23.8035 91.8153 23.8035H94.8777V31.6308C94.8777 36.1559 97.7565 38.6632 102.228 38.6632H104.8C105.168 38.6632 105.474 38.4186 105.474 38.0517V34.8718C105.474 34.5049 105.168 34.1991 104.8 34.1991H102.963C101.187 34.1991 100.207 33.343 100.207 31.4474V23.8035H104.739C105.107 23.8035 105.413 23.4977 105.413 23.1308V19.9509C105.413 19.6452 105.107 19.3394 104.739 19.3394H100.207Z" fill="black"/>
</g>
</svg>
