<svg width="35" height="35" viewBox="0 0 35 35" fill="none" xmlns="http://www.w3.org/2000/svg">
<circle cx="17.1907" cy="17.1907" r="17.1907" fill="#FF9500"/>
<path d="M19.7373 8.70166H12.0972C11.6469 8.70166 11.2151 8.88054 10.8967 9.19893C10.5783 9.51733 10.3994 9.94918 10.3994 10.3995V23.9819C10.3994 24.4322 10.5783 24.864 10.8967 25.1824C11.2151 25.5008 11.6469 25.6797 12.0972 25.6797H22.284C22.7343 25.6797 23.1662 25.5008 23.4846 25.1824C23.803 24.864 23.9818 24.4322 23.9818 23.9819V12.9462L19.7373 8.70166Z" stroke="white" stroke-width="1.16667" stroke-linecap="round" stroke-linejoin="round"/>
<path d="M18.8887 8.70166V12.0973C18.8887 12.5476 19.0675 12.9794 19.3859 13.2978C19.7043 13.6162 20.1362 13.7951 20.5865 13.7951H23.9821" stroke="white" stroke-width="1.16667" stroke-linecap="round" stroke-linejoin="round"/>
<path d="M15.493 14.644H13.7952" stroke="white" stroke-width="1.16667" stroke-linecap="round" stroke-linejoin="round"/>
<path d="M20.5864 18.04H13.7952" stroke="white" stroke-width="1.16667" stroke-linecap="round" stroke-linejoin="round"/>
<path d="M20.5864 21.4351H13.7952" stroke="white" stroke-width="1.16667" stroke-linecap="round" stroke-linejoin="round"/>
</svg>
