<svg width="35" height="35" viewBox="0 0 35 35" fill="none" xmlns="http://www.w3.org/2000/svg">
<circle cx="17.1907" cy="17.1907" r="17.1907" fill="#FF9500"/>
<path d="M17.1909 8.33301C15.439 8.33301 13.7264 8.85252 12.2697 9.82583C10.8131 10.7992 9.67771 12.1826 9.00728 13.8011C8.33685 15.4197 8.16143 17.2007 8.50321 18.919C8.845 20.6373 9.68863 22.2156 10.9274 23.4544C12.1662 24.6932 13.7446 25.5368 15.4628 25.8786C17.1811 26.2204 18.9621 26.045 20.5807 25.3746C22.1993 24.7041 23.5827 23.5688 24.556 22.1121C25.5293 20.6554 26.0488 18.9428 26.0488 17.1909C25.4332 17.3805 24.7776 17.3986 24.1524 17.2434C23.5272 17.0882 22.9562 16.7655 22.5007 16.31C22.0453 15.8546 21.7226 15.2835 21.5674 14.6584C21.4122 14.0332 21.4303 13.3776 21.6199 12.762C21.0043 12.9515 20.3486 12.9697 19.7235 12.8145C19.0983 12.6593 18.5273 12.3366 18.0718 11.8811C17.6163 11.4256 17.2936 10.8546 17.1384 10.2294C16.9832 9.60427 17.0014 8.94862 17.1909 8.33301Z" stroke="white" stroke-width="1.16667" stroke-linecap="round" stroke-linejoin="round"/>
<path d="M14.0903 14.0913V14.0998" stroke="white" stroke-width="1.16667" stroke-linecap="round" stroke-linejoin="round"/>
<path d="M20.7339 20.291V20.2995" stroke="white" stroke-width="1.16667" stroke-linecap="round" stroke-linejoin="round"/>
<path d="M17.1904 17.1914V17.1999" stroke="white" stroke-width="1.16667" stroke-linecap="round" stroke-linejoin="round"/>
<path d="M16.3052 21.6196V21.6281" stroke="white" stroke-width="1.16667" stroke-linecap="round" stroke-linejoin="round"/>
<path d="M12.7617 18.9624V18.9709" stroke="white" stroke-width="1.16667" stroke-linecap="round" stroke-linejoin="round"/>
</svg>
