<svg width="35" height="35" viewBox="0 0 35 35" fill="none" xmlns="http://www.w3.org/2000/svg">
<circle cx="17.1907" cy="17.1907" r="17.1907" fill="#FF9500"/>
<path d="M23.9977 10.9072C24.8485 10.9072 25.5685 11.6272 25.5685 12.4781C25.5685 13.0017 25.3067 13.4599 24.914 13.7544L17.8124 19.0887C17.4197 19.3833 16.9288 19.3833 16.5361 19.0887L9.43454 13.7544C9.04183 13.4599 8.81274 13.0017 8.81274 12.4781C8.81274 11.6272 9.49999 10.9072 10.3836 10.9072H23.9977ZM15.9143 19.9396C16.667 20.496 17.6815 20.496 18.4342 19.9396L25.5685 14.5725V21.3796C25.5685 22.5577 24.6194 23.474 23.474 23.474H10.9072C9.72907 23.474 8.81274 22.5577 8.81274 21.3796V14.5725L15.9143 19.9396Z" fill="white"/>
</svg>
