<svg width="56" height="56" viewBox="0 0 56 56" fill="none" xmlns="http://www.w3.org/2000/svg">
<circle cx="27.5712" cy="27.5712" r="27.5712" fill="#FF9500"/>
<path d="M42.2337 42.2335V31.4934C42.2337 26.2151 41.0974 22.183 34.9393 22.183C31.9702 22.183 29.9908 23.7958 29.1844 25.3353H29.1111V22.6595H23.2829V42.2335H29.3677V32.5198C29.3677 29.9539 29.8442 27.498 32.9966 27.498C36.1123 27.498 36.1489 30.3938 36.1489 32.6664V42.1968H42.2337V42.2335ZM13.3859 22.6595H19.4707V42.2335H13.3859V22.6595ZM16.4283 12.9092C14.4856 12.9092 12.9094 14.4854 12.9094 16.4281C12.9094 18.3708 14.4856 19.9837 16.4283 19.9837C18.3711 19.9837 19.9472 18.3708 19.9472 16.4281C19.9472 14.4854 18.3711 12.9092 16.4283 12.9092Z" fill="white"/>
</svg>
