<svg width="56" height="56" viewBox="0 0 56 56" fill="none" xmlns="http://www.w3.org/2000/svg">
<circle cx="27.5712" cy="27.5712" r="27.5712" fill="#FF9500"/>
<path d="M27.6014 20.6873C31.3565 20.6873 34.4559 23.7867 34.4559 27.5418C34.4559 31.3565 31.3565 34.3963 27.6014 34.3963C23.7867 34.3963 20.7469 31.3565 20.7469 27.5418C20.7469 23.7867 23.7867 20.6873 27.6014 20.6873ZM27.6014 32.0121C30.0452 32.0121 32.0121 30.0452 32.0121 27.5418C32.0121 25.098 30.0452 23.1311 27.6014 23.1311C25.098 23.1311 23.1311 25.098 23.1311 27.5418C23.1311 30.0452 25.1576 32.0121 27.6014 32.0121ZM36.3036 20.4489C36.3036 19.5548 35.5884 18.8396 34.6943 18.8396C33.8002 18.8396 33.085 19.5548 33.085 20.4489C33.085 21.3429 33.8002 22.0582 34.6943 22.0582C35.5884 22.0582 36.3036 21.3429 36.3036 20.4489ZM40.8336 22.0582C40.9528 24.2635 40.9528 30.8796 40.8336 33.085C40.7143 35.2307 40.2375 37.0785 38.6878 38.6878C37.1381 40.2375 35.2307 40.7143 33.085 40.8336C30.8796 40.9528 24.2635 40.9528 22.0582 40.8336C19.9124 40.7143 18.0647 40.2375 16.4554 38.6878C14.9057 37.0785 14.4288 35.2307 14.3096 33.085C14.1904 30.8796 14.1904 24.2635 14.3096 22.0582C14.4288 19.9124 14.9057 18.0051 16.4554 16.4554C18.0647 14.9057 19.9124 14.4288 22.0582 14.3096C24.2635 14.1904 30.8796 14.1904 33.085 14.3096C35.2307 14.4288 37.1381 14.9057 38.6878 16.4554C40.2375 18.0051 40.7143 19.9124 40.8336 22.0582ZM37.9725 35.4096C38.6878 33.681 38.509 29.5087 38.509 27.5418C38.509 25.6344 38.6878 21.4621 37.9725 19.674C37.4957 18.5415 36.6016 17.5879 35.4692 17.1706C33.681 16.4554 29.5087 16.6342 27.6014 16.6342C25.6344 16.6342 21.4621 16.4554 19.7336 17.1706C18.5415 17.6475 17.6475 18.5415 17.1706 19.674C16.4554 21.4621 16.6342 25.6344 16.6342 27.5418C16.6342 29.5087 16.4554 33.681 17.1706 35.4096C17.6475 36.6016 18.5415 37.4957 19.7336 37.9725C21.4621 38.6878 25.6344 38.509 27.6014 38.509C29.5087 38.509 33.681 38.6878 35.4692 37.9725C36.6016 37.4957 37.5553 36.6016 37.9725 35.4096Z" fill="white"/>
</svg>
