<svg width="35" height="35" viewBox="0 0 35 35" fill="none" xmlns="http://www.w3.org/2000/svg">
<circle cx="17.1907" cy="17.1907" r="17.1907" fill="#FF9500"/>
<path d="M25.8908 21.6333L25.0725 25.0767C24.9703 25.5881 24.5612 25.929 24.0498 25.929C15.4584 25.8949 8.46948 18.9059 8.46948 10.3146C8.46948 9.80323 8.77632 9.39412 9.2877 9.29184L12.731 8.47362C13.2083 8.37134 13.7197 8.64408 13.9243 9.08728L15.5266 12.8034C15.6971 13.2466 15.5948 13.758 15.2198 14.0307L13.3788 15.5308C14.538 17.8832 16.4471 19.7923 18.8336 20.9515L20.3337 19.1105C20.6064 18.7696 21.1178 18.6332 21.561 18.8037L25.2771 20.406C25.7203 20.6446 25.993 21.156 25.8908 21.6333Z" fill="white"/>
</svg>
