<svg width="35" height="35" viewBox="0 0 35 35" fill="none" xmlns="http://www.w3.org/2000/svg">
<circle cx="17.1907" cy="17.1907" r="17.1907" fill="#FF9500"/>
<path d="M24.6159 18.1177C24.6159 22.7584 21.3674 25.0787 17.5063 26.4245C17.3041 26.493 17.0845 26.4898 16.8845 26.4153C13.0141 25.0787 9.76562 22.7584 9.76562 18.1177V11.6207C9.76562 11.3745 9.86341 11.1385 10.0375 10.9644C10.2115 10.7903 10.4476 10.6926 10.6938 10.6926C12.55 10.6926 14.8704 9.57878 16.4854 8.16801C16.682 8.00002 16.9321 7.90771 17.1907 7.90771C17.4494 7.90771 17.6995 8.00002 17.8961 8.16801C19.5204 9.58807 21.8315 10.6926 23.6877 10.6926C23.9339 10.6926 24.17 10.7903 24.344 10.9644C24.5181 11.1385 24.6159 11.3745 24.6159 11.6207V18.1177Z" fill="white"/>
</svg>
