<svg width="56" height="56" viewBox="0 0 56 56" fill="none" xmlns="http://www.w3.org/2000/svg">
<circle cx="27.5712" cy="27.5712" r="27.5712" fill="#FF9500"/>
<path d="M43.4051 19.6278C43.0245 18.2128 41.9089 17.0974 40.4941 16.7164C37.9096 16.0093 27.5712 16.0093 27.5712 16.0093C27.5712 16.0093 17.2332 16.0093 14.6487 16.6897C13.2612 17.0703 12.1184 18.2131 11.7378 19.6278C11.0576 22.2121 11.0576 27.5718 11.0576 27.5718C11.0576 27.5718 11.0576 32.9584 11.7378 35.5157C12.1187 36.9304 13.234 38.0458 14.6489 38.4268C17.2604 39.1342 27.5716 39.1342 27.5716 39.1342C27.5716 39.1342 37.9096 39.1342 40.4941 38.4538C41.9091 38.073 43.0245 36.9576 43.4055 35.5429C44.0854 32.9583 44.0854 27.5989 44.0854 27.5989C44.0854 27.5989 44.1126 22.212 43.4051 19.6278ZM24.2797 32.5231V22.6202L32.8765 27.5717L24.2797 32.5231Z" fill="white"/>
</svg>
